<svg width="411" height="562" viewBox="0 0 411 562" fill="none" xmlns="http://www.w3.org/2000/svg">
<g clip-path="url(#clip0)">
<path d="M222.096 562C219.19 562 216.131 561.388 213.377 560.012L110.895 500.677C107.53 498.689 105.694 495.936 105.542 493.031C105.542 490.431 106.765 487.984 109.213 486.455L213.836 426.814C219.649 423.45 226.532 423.297 232.497 426.203L334.98 485.69C337.733 487.678 339.415 490.89 339.262 493.948C339.109 496.548 337.733 498.689 335.438 500.065L231.579 559.4C228.826 561.235 225.461 562 222.096 562ZM109.977 487.526C107.989 488.902 106.765 490.89 106.765 493.031C106.765 495.478 108.448 497.772 111.354 499.607L213.836 558.942C219.343 561.694 225.767 561.388 230.968 558.33L334.827 498.995C336.815 497.924 337.886 496.089 338.039 493.948C338.192 491.349 336.815 488.596 334.368 486.761L231.885 427.426C226.379 424.673 219.802 424.826 214.448 428.038L109.977 487.526Z" fill="url(#paint0_linear)"/>
<path opacity="0.01" d="M45.582 440.73L205.73 349.893C215.213 344.388 226.685 344.082 236.474 348.975L391.116 438.742C399.069 444.553 400.599 456.176 391.88 461.375L232.956 551.754C223.626 557.106 212.307 557.565 202.671 552.672L48.1823 463.057C37.1693 456.482 37.7811 446.083 45.582 440.73Z" fill="#FEFEFF"/>
<path opacity="0.01" d="M45.8877 440.73L205.883 349.893C215.366 344.388 226.838 344.082 236.627 348.975L391.115 438.589C399.069 444.401 400.599 456.023 391.88 461.222L233.262 551.448C224.085 556.801 212.613 557.259 203.129 552.366L48.641 462.905C37.322 456.482 37.9339 446.083 45.8877 440.73Z" fill="#FEFDFF"/>
<path opacity="0.01" d="M46.1937 440.73L206.036 350.046C215.366 344.54 226.991 344.235 236.627 349.128L390.963 438.589C398.916 444.4 400.446 456.023 391.727 461.069L233.262 551.142C224.085 556.495 212.766 556.953 203.129 552.06L48.641 462.904C37.628 456.329 38.2399 446.083 46.1937 440.73Z" fill="#FDFCFF"/>
<path opacity="0.012195" d="M46.3466 440.73L205.883 350.199C215.213 344.693 226.838 344.387 236.474 349.281L390.504 438.742C398.457 444.553 399.987 456.176 391.268 461.222L232.956 551.295C223.779 556.648 212.46 556.953 202.823 552.213L48.9469 462.904C37.9339 456.329 38.5457 446.083 46.3466 440.73Z" fill="#FCFBFF"/>
<path opacity="0.015244" d="M46.6527 440.73L206.036 350.352C215.366 344.846 226.838 344.54 236.627 349.434L390.504 438.742C398.458 444.553 399.987 456.176 391.269 461.222L233.262 551.142C224.085 556.495 212.766 556.801 203.129 552.06L49.1 462.905C38.087 456.329 38.6988 446.083 46.6527 440.73Z" fill="#FCFAFF"/>
<path opacity="0.018293" d="M46.8056 440.73L206.036 350.352C215.366 344.846 226.838 344.54 236.627 349.434L390.351 438.589C398.305 444.401 399.834 456.023 391.116 461.069L233.262 550.837C224.085 556.189 212.766 556.495 203.282 551.754L49.4059 462.905C38.3929 456.329 39.0047 446.083 46.8056 440.73Z" fill="#FBF9FF"/>
<path opacity="0.021341" d="M47.1113 440.73L206.035 350.504C215.366 344.999 226.838 344.693 236.474 349.587L390.045 438.742C397.999 444.553 399.528 456.023 390.81 461.222L233.109 550.836C223.932 556.189 212.613 556.495 203.129 551.754L49.5587 462.752C38.5457 456.329 39.3104 445.93 47.1113 440.73Z" fill="#FBF8FF"/>
<path opacity="0.02439" d="M47.2646 440.73L206.036 350.657C215.366 345.305 226.838 344.846 236.475 349.74L389.739 438.742C397.693 444.553 399.223 456.023 390.504 461.222L233.109 550.836C223.932 556.189 212.613 556.495 203.13 551.754L49.8649 462.752C38.8519 456.176 39.4637 445.93 47.2646 440.73Z" fill="#FAF7FE"/>
<path opacity="0.027439" d="M47.57 440.731L206.188 350.811C215.519 345.458 226.991 344.999 236.627 349.893L389.739 438.742C397.692 444.554 399.222 456.023 390.503 461.07L233.109 550.531C223.931 555.883 212.612 556.189 203.129 551.448L50.0173 462.752C39.1573 456.176 39.7691 445.93 47.57 440.731Z" fill="#F9F6FE"/>
<path opacity="0.030488" d="M47.876 440.731L206.188 350.811C215.519 345.458 226.991 344.999 236.627 349.893L389.586 438.59C397.54 444.401 399.069 455.87 390.351 460.917L233.262 550.225C224.084 555.577 212.918 555.883 203.435 551.142L50.4763 462.599C39.3103 456.176 40.0751 445.93 47.876 440.731Z" fill="#F9F5FE"/>
<path opacity="0.033537" d="M48.0293 440.73L206.189 350.963C215.519 345.611 226.838 345.152 236.474 350.046L389.28 438.742C397.234 444.554 398.764 456.023 390.045 461.069L233.262 550.225C224.085 555.577 212.919 555.883 203.435 551.142L50.6295 462.599C39.6165 456.176 40.2284 445.93 48.0293 440.73Z" fill="#F8F4FE"/>
<path opacity="0.036585" d="M48.3351 440.73L206.188 351.116C215.519 345.764 226.838 345.305 236.474 350.199L388.974 438.742C396.928 444.553 398.305 456.023 389.739 461.069L233.109 550.225C223.932 555.577 212.766 555.883 203.282 551.142L50.7825 462.752C39.9224 456.176 40.5342 445.93 48.3351 440.73Z" fill="#F7F3FE"/>
<path opacity="0.039634" d="M48.488 440.73L206.188 351.269C215.519 345.917 226.838 345.458 236.474 350.352L388.821 438.742C396.622 444.554 398.152 456.023 389.586 461.07L233.109 550.072C223.932 555.424 212.766 555.73 203.282 550.989L50.9353 462.752C40.0752 456.176 40.6871 445.93 48.488 440.73Z" fill="#F7F2FE"/>
<path opacity="0.042683" d="M48.7939 440.73L206.341 351.269C215.672 345.917 226.991 345.458 236.627 350.352L388.821 438.589C396.622 444.248 398.151 455.717 389.586 460.764L233.415 549.613C224.237 554.966 213.071 555.271 203.741 550.531L51.5471 462.446C40.3812 456.023 40.993 445.93 48.7939 440.73Z" fill="#F6F1FE"/>
<path opacity="0.045732" d="M48.9468 440.73L206.188 351.422C215.519 346.07 226.838 345.764 236.321 350.505L388.362 438.742C396.163 444.401 397.693 455.87 389.127 460.917L233.109 549.613C223.931 554.966 212.766 555.271 203.435 550.531L51.3941 462.446C40.687 456.023 41.2988 445.93 48.9468 440.73Z" fill="#F5F0FE"/>
<path opacity="0.04878" d="M49.2526 440.73L206.341 351.575C215.519 346.223 226.991 345.917 236.474 350.657L388.209 438.742C396.01 444.401 397.54 455.87 388.974 460.916L233.109 549.613C224.084 554.965 212.918 555.271 203.435 550.531L51.6999 462.599C40.8399 456.023 41.4517 445.93 49.2526 440.73Z" fill="#F5EFFE"/>
<path opacity="0.051829" d="M49.5588 440.73L206.494 351.728C215.672 346.375 226.991 346.07 236.627 350.81L388.209 438.742C396.01 444.4 397.54 455.87 388.974 460.916L233.415 549.46C224.391 554.812 213.225 555.118 203.741 550.378L52.0061 462.446C41.146 456.023 41.7579 445.93 49.5588 440.73Z" fill="#F4EEFE"/>
<path opacity="0.054878" d="M49.7118 440.73L206.494 351.728C215.672 346.375 226.991 346.07 236.627 350.81L388.056 438.589C395.857 444.247 397.387 455.717 388.821 460.763L233.415 549.154C224.391 554.507 213.225 554.812 203.894 550.072L52.465 462.446C41.452 456.023 42.0638 445.777 49.7118 440.73Z" fill="#F3EDFE"/>
<path opacity="0.057927" d="M50.0177 440.73L206.494 351.881C215.672 346.528 226.991 346.223 236.474 350.963L387.75 438.742C395.551 444.401 397.081 455.87 388.362 460.917L233.262 549.001C224.238 554.201 213.072 554.66 203.741 549.919L52.4651 462.293C41.605 456.023 42.2169 445.777 50.0177 440.73Z" fill="#F3ECFE"/>
<path opacity="0.060976" d="M50.1704 440.731L206.494 352.034C215.672 346.682 226.991 346.376 236.474 351.116L387.444 438.743C395.245 444.401 396.775 455.87 388.056 460.764L233.109 549.002C224.084 554.201 212.918 554.66 203.588 549.919L52.6177 462.446C41.9106 455.87 42.5225 445.777 50.1704 440.731Z" fill="#F2EBFE"/>
<path opacity="0.064024" d="M50.4765 440.578L206.494 352.034C215.672 346.682 226.991 346.376 236.474 351.116L387.292 438.59C395.092 444.248 396.622 455.564 387.903 460.611L233.109 548.696C224.085 553.895 212.919 554.354 203.588 549.613L52.7708 462.293C42.0637 455.87 42.8285 445.777 50.4765 440.578Z" fill="#F2EAFE"/>
<path opacity="0.067073" d="M50.6294 440.578L206.494 352.187C215.672 346.834 226.991 346.529 236.474 351.269L387.138 438.742C394.939 444.401 396.469 455.717 387.75 460.764L233.109 548.696C224.085 553.895 213.071 554.354 203.741 549.613L53.0767 462.293C42.3696 455.87 42.9814 445.777 50.6294 440.578Z" fill="#F1E9FE"/>
<path opacity="0.070122" d="M50.9355 440.578L206.647 352.187C215.825 346.834 226.991 346.529 236.474 351.269L386.986 438.59C394.787 444.248 396.316 455.564 387.598 460.611L233.262 548.39C224.238 553.589 213.225 554.048 203.894 549.307L53.3829 462.14C42.6758 455.87 43.2876 445.777 50.9355 440.578Z" fill="#F0E8FD"/>
<path opacity="0.073171" d="M51.2413 440.577L206.647 352.34C215.825 346.987 226.991 346.681 236.474 351.422L386.68 438.589C394.481 444.248 396.01 455.564 387.292 460.611L233.109 548.39C224.085 553.589 213.072 554.048 203.741 549.307L53.5357 462.293C42.8286 455.87 43.4404 445.777 51.2413 440.577Z" fill="#F0E7FD"/>
<path opacity="0.07622" d="M51.3939 440.577L206.647 352.492C215.825 347.14 226.99 346.834 236.474 351.575L386.526 438.589C394.327 444.248 395.704 455.564 387.138 460.458L233.109 548.084C224.084 553.283 213.071 553.589 203.741 549.001L53.6883 462.14C43.1341 455.717 43.746 445.777 51.3939 440.577Z" fill="#EFE6FD"/>
<path opacity="0.079268" d="M51.7 440.577L206.8 352.492C215.978 347.14 227.144 346.834 236.627 351.575L386.527 438.589C394.327 444.248 395.704 455.564 387.138 460.458L233.415 547.931C224.39 553.13 213.377 553.436 204.2 548.848L54.3003 461.987C43.4402 455.717 44.0521 445.777 51.7 440.577Z" fill="#EEE5FD"/>
<path opacity="0.082317" d="M51.8529 440.577L206.647 352.646C215.825 347.293 226.991 346.987 236.321 351.728L386.068 438.589C393.869 444.248 395.245 455.564 386.679 460.458L233.109 547.778C224.084 552.977 213.071 553.283 203.894 548.696L54.1473 461.987C43.5931 455.717 44.205 445.777 51.8529 440.577Z" fill="#EEE4FD"/>
<path opacity="0.085366" d="M52.159 440.578L206.8 352.799C215.978 347.446 227.144 347.14 236.474 351.881L385.915 438.59C393.563 444.248 395.092 455.411 386.527 460.458L233.109 547.778C224.085 552.978 213.225 553.283 203.894 548.696L54.4534 462.14C43.8993 455.717 44.5111 445.777 52.159 440.578Z" fill="#EDE3FD"/>
<path opacity="0.088415" d="M52.3118 440.578L206.8 352.951C215.825 347.599 226.991 347.293 236.474 352.034L385.762 438.59C393.41 444.248 394.939 455.411 386.374 460.458L233.262 547.625C224.39 552.825 213.377 553.131 204.047 548.543L54.7592 462.14C44.205 455.717 44.8169 445.624 52.3118 440.578Z" fill="#ECE2FD"/>
<path opacity="0.091463" d="M52.6177 440.578L206.8 352.951C215.825 347.599 226.991 347.293 236.474 352.034L385.609 438.589C393.257 444.248 394.786 455.411 386.221 460.458L233.262 547.472C224.39 552.672 213.377 552.978 204.2 548.39L55.065 461.987C44.3579 455.717 44.9697 445.624 52.6177 440.578Z" fill="#ECE1FD"/>
<path opacity="0.094512" d="M52.9237 440.578L206.953 353.104C215.978 347.905 227.144 347.446 236.474 352.187L385.456 438.589C393.104 444.248 394.633 455.411 386.068 460.305L233.262 547.166C224.39 552.366 213.377 552.672 204.2 548.084L55.2181 461.834C44.6639 455.564 45.2758 445.624 52.9237 440.578Z" fill="#EBE0FD"/>
<path opacity="0.097561" d="M53.0768 440.577L206.953 353.257C215.978 348.058 227.144 347.599 236.474 352.34L385.303 438.589C392.951 444.248 394.481 455.411 385.915 460.305L233.415 547.166C224.544 552.366 213.531 552.672 204.353 548.084L55.6771 461.987C44.97 455.564 45.5819 445.624 53.0768 440.577Z" fill="#EBDFFD"/>
<path opacity="0.1006" d="M53.3827 440.578L206.953 353.41C215.978 348.211 227.144 347.752 236.474 352.493L384.997 438.742C392.645 444.401 394.175 455.564 385.609 460.458L233.262 547.166C224.39 552.366 213.377 552.672 204.2 548.084L55.6771 461.987C45.1229 455.564 45.7347 445.624 53.3827 440.578Z" fill="#EADEFD"/>
<path opacity="0.1037" d="M53.5355 440.578L206.953 353.41C215.978 348.211 227.144 347.752 236.474 352.493L384.844 438.59C392.492 444.248 394.021 455.411 385.456 460.305L233.262 546.861C224.39 552.06 213.53 552.366 204.353 547.778L55.9828 461.834C45.4287 455.564 46.0405 445.624 53.5355 440.578Z" fill="#E9DDFD"/>
<path opacity="0.1067" d="M53.8413 440.577L206.953 353.563C215.978 348.364 226.991 347.905 236.321 352.646L384.538 438.589C392.186 444.248 393.716 455.258 385.15 460.305L233.262 546.708C224.39 551.907 213.53 552.213 204.353 547.625L56.2886 461.834C45.5815 455.564 46.1934 445.624 53.8413 440.577Z" fill="#E9DCFD"/>
<path opacity="0.1098" d="M53.9945 440.578L206.953 353.716C215.978 348.517 226.991 348.211 236.321 352.799L384.385 438.59C392.033 444.095 393.563 455.258 384.997 460.152L233.262 546.555C224.39 551.754 213.53 552.06 204.353 547.472L56.4418 461.834C45.8876 455.564 46.4995 445.624 53.9945 440.578Z" fill="#E8DBFD"/>
<path opacity="0.1128" d="M54.3004 440.577L207.106 353.869C216.131 348.669 227.144 348.364 236.474 352.951L384.232 438.742C391.88 444.248 393.41 455.411 384.844 460.305L233.262 546.555C224.39 551.754 213.53 552.06 204.353 547.472L56.5948 461.834C46.1936 455.411 46.8055 445.624 54.3004 440.577Z" fill="#E7DAFD"/>
<path opacity="0.1159" d="M54.6064 440.577L207.106 353.869C216.131 348.669 227.144 348.364 236.474 352.951L384.079 438.589C391.727 444.095 393.104 455.258 384.691 460.152L233.415 546.249C224.544 551.448 213.683 551.754 204.659 547.166L57.0538 461.681C46.3467 455.411 46.9585 445.624 54.6064 440.577Z" fill="#E7D9FC"/>
<path opacity="0.1189" d="M54.7594 440.577L207.106 354.022C216.131 348.822 227.144 348.516 236.321 353.104L383.774 438.589C391.421 444.095 392.798 455.258 384.385 460.152L233.262 546.096C224.391 551.295 213.531 551.601 204.506 547.013L57.0538 461.681C46.6526 455.411 47.2644 445.471 54.7594 440.577Z" fill="#E6D8FC"/>
<path opacity="0.122" d="M55.0653 440.578L207.259 354.175C216.284 348.975 227.297 348.67 236.474 353.257L383.773 438.589C391.421 444.095 392.798 455.258 384.385 460.152L233.415 545.943C224.544 551.142 213.836 551.448 204.659 546.861L57.5126 461.528C46.9584 455.411 47.5703 445.471 55.0653 440.578Z" fill="#E5D7FC"/>
<path opacity="0.125" d="M55.2181 440.425L207.106 354.175C216.131 348.975 226.991 348.67 236.321 353.257L383.314 438.589C390.962 444.095 392.339 455.258 383.926 460.152L233.415 545.943C224.543 551.142 213.836 551.448 204.659 546.861L57.6654 461.681C47.1113 455.411 47.7231 445.471 55.2181 440.425Z" fill="#E5D6FC"/>
<path opacity="0.128" d="M55.5241 440.425L207.259 354.175C216.284 348.975 227.144 348.67 236.474 353.257L383.315 438.437C390.962 443.942 392.339 454.952 383.926 459.846L233.415 545.484C224.543 550.531 213.836 550.989 204.659 546.402L57.8184 461.375C47.4173 455.258 48.0291 445.471 55.5241 440.425Z" fill="#E4D5FC"/>
<path opacity="0.1311" d="M55.6769 440.425L207.259 354.328C216.131 349.128 227.144 348.823 236.321 353.41L383.008 438.437C390.656 443.942 392.033 454.953 383.62 459.846L233.262 545.331C224.543 550.378 213.683 550.837 204.659 546.249L58.1243 461.528C47.7231 455.258 48.3349 445.471 55.6769 440.425Z" fill="#E3D4FC"/>
<path opacity="0.1341" d="M55.9827 440.425L207.259 354.481C216.13 349.281 227.143 348.975 236.321 353.563L382.855 438.59C390.35 444.095 391.88 455.105 383.467 459.999L233.415 545.484C224.696 550.531 213.836 550.99 204.812 546.402L58.4301 461.528C47.8759 455.258 48.4878 445.471 55.9827 440.425Z" fill="#E3D3FC"/>
<path opacity="0.1372" d="M56.2887 440.425L207.412 354.634C216.284 349.434 227.297 349.128 236.474 353.716L382.703 438.589C390.198 444.095 391.727 455.105 383.314 459.999L233.415 545.331C224.696 550.378 213.836 550.837 204.812 546.249L58.5831 461.528C48.1819 455.258 48.7937 445.471 56.2887 440.425Z" fill="#E2D2FC"/>
<path opacity="0.1402" d="M56.442 440.425L207.412 354.634C216.284 349.434 227.297 349.128 236.474 353.716L382.55 438.437C390.045 443.942 391.575 454.952 383.162 459.846L233.415 545.025C224.697 550.072 213.989 550.531 204.812 545.943L58.7364 461.375C48.3352 455.258 48.9471 445.471 56.442 440.425Z" fill="#E2D1FC"/>
<path opacity="0.1433" d="M56.7477 440.424L207.412 354.786C216.284 349.587 227.144 349.281 236.321 353.869L382.244 438.436C389.739 443.942 391.268 454.952 382.856 459.693L233.415 544.719C224.696 549.766 213.989 550.072 204.965 545.637L59.0421 461.222C48.6409 455.258 49.2527 445.471 56.7477 440.424Z" fill="#E1D0FC"/>
<path opacity="0.1463" d="M56.9005 440.425L207.412 354.939C216.283 349.74 227.144 349.434 236.321 354.022L382.091 438.59C389.586 444.095 391.115 455.105 382.703 459.846L233.415 544.872C224.696 549.919 213.989 550.225 204.965 545.79L59.3479 461.375C48.9467 455.105 49.5585 445.471 56.9005 440.425Z" fill="#E0CFFC"/>
<path opacity="0.1494" d="M57.2069 440.425L207.565 355.092C216.437 349.893 227.297 349.587 236.474 354.175L381.938 438.589C389.433 444.095 390.963 454.952 382.55 459.846L233.415 544.72C224.697 549.766 213.99 550.072 204.965 545.637L59.6542 461.375C49.1 455.105 49.7119 445.471 57.2069 440.425Z" fill="#E0CEFC"/>
<path opacity="0.1524" d="M57.3598 440.425L207.412 355.092C216.284 349.893 227.144 349.587 236.321 354.175L381.632 438.437C389.127 443.942 390.657 454.799 382.244 459.693L233.415 544.414C224.697 549.46 213.99 549.766 204.965 545.331L59.6542 461.222C49.406 455.105 50.0178 445.318 57.3598 440.425Z" fill="#DFCDFC"/>
<path opacity="0.1555" d="M57.6657 440.424L207.565 355.245C216.437 350.046 227.297 349.74 236.321 354.328L381.479 438.589C388.974 444.095 390.351 454.952 382.091 459.846L233.568 544.414C224.85 549.46 214.142 549.766 205.271 545.331L60.113 461.222C49.7118 455.105 50.3237 445.318 57.6657 440.424Z" fill="#DECCFC"/>
<path opacity="0.1585" d="M57.9714 440.425L207.718 355.398C216.59 350.199 227.45 349.893 236.474 354.481L381.479 438.589C388.974 444.095 390.351 454.952 382.091 459.846L233.721 544.414C225.002 549.46 214.448 549.766 205.424 545.331L60.5717 461.375C49.8646 455.105 50.4764 445.318 57.9714 440.425Z" fill="#DECBFC"/>
<path opacity="0.1616" d="M58.1245 440.424L207.565 355.551C216.437 350.352 227.144 350.046 236.321 354.633L381.02 438.589C388.515 444.095 389.892 454.952 381.632 459.693L233.415 544.108C224.696 549.154 214.142 549.46 205.118 545.025L60.4188 461.222C50.1706 454.952 50.7824 445.318 58.1245 440.424Z" fill="#DDCAFB"/>
<path opacity="0.1646" d="M58.4301 440.424L207.718 355.551C216.589 350.504 227.296 350.046 236.474 354.633L381.02 438.436C388.515 443.942 389.892 454.799 381.632 459.54L233.568 543.802C224.849 548.848 214.295 549.154 205.27 544.719L60.7245 461.069C50.4763 454.952 51.0881 445.318 58.4301 440.424Z" fill="#DCC9FB"/>
<path opacity="0.1677" d="M58.5832 440.425L207.718 355.704C216.589 350.658 227.297 350.199 236.321 354.787L380.714 438.589C388.209 444.095 389.586 454.953 381.326 459.693L233.568 543.802C224.849 548.849 214.295 549.154 205.424 544.72L61.0305 461.07C50.6293 454.952 51.2411 445.318 58.5832 440.425Z" fill="#DCC8FB"/>
<path opacity="0.1707" d="M58.8891 440.424L207.718 355.857C216.437 350.81 227.297 350.352 236.321 354.939L380.561 438.589C388.056 444.095 389.433 454.799 381.173 459.693L233.568 543.802C225.002 548.848 214.295 549.154 205.424 544.719L61.1835 461.069C50.9353 454.952 51.5471 445.318 58.8891 440.424Z" fill="#DBC7FB"/>
<path opacity="0.1738" d="M59.0423 440.425L207.718 356.01C216.437 350.963 227.297 350.657 236.321 355.092L380.256 438.589C387.751 443.942 389.127 454.799 380.867 459.693L233.415 543.649C224.85 548.696 214.142 549.001 205.271 544.567L61.3367 461.222C51.2414 454.952 51.7003 445.318 59.0423 440.425Z" fill="#DBC6FB"/>
<path opacity="0.1768" d="M59.3481 440.424L207.718 356.01C216.437 350.963 227.144 350.657 236.321 355.092L380.102 438.436C387.597 443.789 388.974 454.647 380.714 459.387L233.568 543.19C225.002 548.237 214.448 548.543 205.424 544.108L61.6425 460.764C51.3942 454.952 52.0061 445.318 59.3481 440.424Z" fill="#DAC5FB"/>
<path opacity="0.1799" d="M59.6538 440.425L207.871 356.163C216.589 351.116 227.296 350.81 236.321 355.245L379.949 438.59C387.291 443.942 388.821 454.8 380.561 459.54L233.568 543.19C225.002 548.237 214.448 548.543 205.576 544.108L61.9481 460.917C51.6999 454.8 52.3117 445.318 59.6538 440.425Z" fill="#D9C4FB"/>
<path opacity="0.1829" d="M59.8068 440.425L207.871 356.316C216.589 351.269 227.297 350.963 236.321 355.398L379.796 438.589C387.138 443.942 388.668 454.8 380.408 459.54L233.568 543.19C225.002 548.237 214.448 548.543 205.576 544.108L62.2541 461.069C51.8529 454.8 52.4648 445.318 59.8068 440.425Z" fill="#D9C3FB"/>
<path opacity="0.186" d="M60.1127 440.272L207.871 356.316C216.589 351.269 227.297 350.963 236.321 355.398L379.49 438.437C386.833 443.789 388.362 454.647 380.102 459.387L233.568 542.884C225.002 547.931 214.448 548.237 205.576 543.802L62.4071 460.917C52.1589 454.8 52.7707 445.165 60.1127 440.272Z" fill="#D8C2FB"/>
<path opacity="0.189" d="M60.2656 440.272L207.871 356.316C216.589 351.269 227.297 350.963 236.321 355.398L379.337 438.437C386.679 443.789 388.209 454.647 379.949 459.387L233.568 542.884C225.002 547.931 214.448 548.237 205.576 543.802L62.713 460.917C52.4647 454.8 53.0766 445.165 60.2656 440.272Z" fill="#D7C1FB"/>
<path opacity="0.1921" d="M60.5717 440.272L208.024 356.469C216.743 351.422 227.45 351.116 236.321 355.551L379.185 438.436C386.527 443.789 388.056 454.494 379.797 459.387L233.568 542.578C225.002 547.625 214.448 547.931 205.73 543.496L62.8661 460.763C52.6179 454.799 53.2297 445.165 60.5717 440.272Z" fill="#D7C0FB"/>
<path opacity="0.1951" d="M60.7246 440.272L207.871 356.622C216.59 351.575 227.144 351.269 236.168 355.704L378.879 438.437C386.221 443.789 387.597 454.494 379.491 459.234L233.568 542.426C225.002 547.472 214.601 547.778 205.729 543.343L63.172 460.764C52.9237 454.8 53.5356 445.165 60.7246 440.272Z" fill="#D6BFFB"/>
<path opacity="0.1982" d="M61.0305 440.272L208.024 356.774C216.742 351.728 227.297 351.422 236.321 355.857L378.726 438.437C386.068 443.789 387.444 454.494 379.338 459.234L233.568 542.273C225.002 547.166 214.601 547.625 205.729 543.19L63.3249 460.764C53.2296 454.647 53.8415 445.165 61.0305 440.272Z" fill="#D5BEFB"/>
<path opacity="0.2012" d="M61.3364 440.272L208.177 356.774C216.895 351.728 227.449 351.422 236.474 355.857L378.726 438.437C386.068 443.789 387.444 454.494 379.337 459.234L233.721 542.12C225.155 547.013 214.754 547.472 205.882 543.037L63.6307 460.611C53.3825 454.647 53.9944 445.165 61.3364 440.272Z" fill="#D5BDFB"/>
<path opacity="0.2043" d="M61.4895 440.272L208.024 356.928C216.743 351.881 227.297 351.575 236.168 356.01L378.267 438.437C385.609 443.789 386.986 454.494 378.879 459.234L233.568 541.967C225.002 546.861 214.601 547.319 205.882 542.885L63.7839 460.611C53.6886 454.647 54.3004 445.165 61.4895 440.272Z" fill="#D4BCFB"/>
<path opacity="0.2073" d="M61.7952 440.272L208.177 357.08C216.895 352.034 227.449 351.728 236.321 356.163L378.267 438.437C385.609 443.789 386.985 454.494 378.879 459.234L233.721 541.967C225.155 546.861 214.754 547.319 206.035 542.884L64.2425 460.764C53.9943 454.647 54.4532 445.165 61.7952 440.272Z" fill="#D3BBFA"/>
<path opacity="0.2104" d="M61.9485 440.272L208.177 357.233C216.743 352.187 227.45 351.881 236.321 356.316L377.961 438.436C385.303 443.789 386.68 454.494 378.573 459.081L233.568 541.661C225.155 546.555 214.601 546.86 205.883 542.578L64.2429 460.458C54.1476 454.647 54.7594 445.165 61.9485 440.272Z" fill="#D3BAFA"/>
<path opacity="0.2134" d="M62.2541 440.272L208.177 357.233C216.742 352.187 227.297 351.881 236.321 356.316L377.808 438.436C385.15 443.789 386.527 454.494 378.42 459.081L233.721 541.508C225.308 546.402 214.907 546.707 206.035 542.426L64.5485 460.458C54.4533 454.494 55.0651 445.165 62.2541 440.272Z" fill="#D2B9FA"/>
<path opacity="0.2165" d="M62.4074 440.272L208.177 357.386C216.743 352.34 227.297 352.034 236.168 356.469L377.502 438.437C384.844 443.789 386.221 454.341 378.114 459.082L233.568 541.508C225.155 546.402 214.754 546.708 206.036 542.426L64.7018 460.611C54.7595 454.494 55.2183 445.165 62.4074 440.272Z" fill="#D2B8FA"/>
<path opacity="0.2195" d="M62.7129 440.272L208.33 357.539C216.895 352.493 227.449 352.187 236.321 356.622L377.502 438.437C384.844 443.789 386.221 454.341 378.114 459.081L233.721 541.355C225.308 546.249 214.907 546.555 206.188 542.273L65.1602 460.611C54.912 454.494 55.5238 445.012 62.7129 440.272Z" fill="#D1B7FA"/>
<path opacity="0.2226" d="M63.0188 440.272L208.33 357.692C216.895 352.646 227.449 352.34 236.321 356.775L377.196 438.59C384.538 443.942 385.915 454.494 377.808 459.234L233.721 541.355C225.308 546.249 214.907 546.555 206.188 542.273L65.3132 460.611C55.2179 454.494 55.8297 445.012 63.0188 440.272Z" fill="#D0B6FA"/>
<path opacity="0.2256" d="M63.1721 440.272L208.33 357.692C216.896 352.646 227.45 352.34 236.321 356.775L377.043 438.437C384.385 443.789 385.762 454.341 377.655 459.082L233.721 541.049C225.308 545.943 214.907 546.249 206.188 541.967L65.4665 460.458C55.3712 454.494 55.9831 445.012 63.1721 440.272Z" fill="#D0B5FA"/>
<path opacity="0.2287" d="M63.4778 440.272L208.483 357.845C217.048 352.798 227.602 352.493 236.321 356.927L376.89 438.437C384.079 443.789 385.609 454.341 377.502 458.929L233.721 540.896C225.308 545.79 214.907 546.096 206.341 541.814L65.7722 460.458C55.6769 454.494 56.2887 445.012 63.4778 440.272Z" fill="#CFB4FA"/>
<path opacity="0.2317" d="M63.6307 440.272L208.33 357.998C216.895 353.104 227.297 352.646 236.168 357.08L376.584 438.437C383.773 443.789 385.303 454.341 377.196 458.929L233.721 540.743C225.308 545.637 215.06 545.943 206.341 541.661L66.0781 460.458C55.9828 454.341 56.5946 445.012 63.6307 440.272Z" fill="#CEB3FA"/>
<path opacity="0.2348" d="M63.9368 440.272L208.483 358.151C217.048 353.257 227.45 352.798 236.321 357.233L376.431 438.589C383.62 443.942 384.997 454.494 377.043 459.081L233.721 540.743C225.308 545.637 215.06 545.943 206.341 541.661L66.2311 460.305C56.1359 454.341 56.7477 445.012 63.9368 440.272Z" fill="#CEB2FA"/>
<path opacity="0.2378" d="M64.0899 440.272L208.483 358.151C217.049 353.257 227.45 352.798 236.321 357.233L376.279 438.437C383.468 443.636 384.844 454.188 376.89 458.928L233.721 540.438C225.308 545.331 215.06 545.637 206.341 541.355L66.3843 460.305C56.442 454.341 57.0538 445.012 64.0899 440.272Z" fill="#CDB1FA"/>
<path opacity="0.2409" d="M64.3957 440.272L208.483 358.304C217.048 353.41 227.45 353.104 236.168 357.386L375.973 438.437C383.162 443.636 384.538 454.188 376.584 458.929L233.721 540.438C225.308 545.331 215.06 545.637 206.494 541.355L66.6901 460.305C56.7477 454.341 57.2066 445.012 64.3957 440.272Z" fill="#CCB0FA"/>
<path opacity="0.2439" d="M64.7014 440.272L208.636 358.457C217.201 353.563 227.602 353.257 236.321 357.539L375.972 438.589C383.161 443.789 384.538 454.341 376.584 458.929L233.874 540.285C225.461 545.178 215.213 545.484 206.647 541.202L66.9958 460.305C56.9005 454.341 57.5124 445.012 64.7014 440.272Z" fill="#CCAFFA"/>
<path opacity="0.247" d="M64.8545 440.119L208.483 358.457C217.048 353.563 227.45 353.257 236.168 357.539L375.514 438.437C382.703 443.636 384.079 454.188 376.125 458.776L233.568 539.979C225.155 544.872 214.907 545.178 206.341 540.896L66.9959 460.152C57.2065 454.341 57.8184 445.012 64.8545 440.119Z" fill="#CBAEFA"/>
<path opacity="0.25" d="M65.1603 440.119L208.636 358.457C217.048 353.563 227.449 353.257 236.321 357.539L375.513 438.284C382.703 443.483 384.079 454.035 376.125 458.623L233.874 539.673C225.461 544.567 215.366 544.872 206.647 540.591L67.4547 459.999C57.5124 454.188 57.9713 444.859 65.1603 440.119Z" fill="#CAADF9"/>
<path opacity="0.253" d="M65.3135 440.119L208.636 358.609C217.049 353.716 227.45 353.41 236.321 357.692L375.361 438.283C382.55 443.483 383.926 454.035 375.973 458.623L233.874 539.673C225.614 544.566 215.366 544.872 206.647 540.59L67.6079 460.152C57.6656 454.188 58.2774 444.859 65.3135 440.119Z" fill="#CAACF9"/>
<path opacity="0.2561" d="M65.6192 440.119L208.636 358.763C217.048 353.869 227.449 353.563 236.168 357.845L375.055 438.437C382.244 443.636 383.62 454.188 375.666 458.776L233.721 539.673C225.461 544.567 215.213 544.873 206.647 540.591L67.9136 460.152C57.9713 454.188 58.5831 444.859 65.6192 440.119Z" fill="#C9ABF9"/>
<path opacity="0.2591" d="M65.7725 440.119L208.636 358.915C217.049 354.022 227.45 353.716 236.168 357.998L374.749 438.436C381.938 443.636 383.315 454.035 375.361 458.776L233.721 539.52C225.461 544.414 215.213 544.719 206.647 540.438L68.0669 460.152C58.1246 454.188 58.7364 444.859 65.7725 440.119Z" fill="#C9AAF9"/>
<path opacity="0.2622" d="M66.0782 440.119L208.789 358.915C217.201 354.022 227.603 353.716 236.321 357.998L374.749 438.284C381.938 443.483 383.315 453.882 375.361 458.47L233.874 539.061C225.614 543.955 215.366 544.261 206.8 539.979L68.3726 459.846C58.4302 454.188 59.0421 444.859 66.0782 440.119Z" fill="#C8A9F9"/>
<path opacity="0.2652" d="M66.3841 440.119L208.789 359.068C217.201 354.175 227.603 353.869 236.321 358.151L374.596 438.284C381.785 443.483 383.162 453.882 375.208 458.47L233.874 539.061C225.614 543.955 215.366 544.261 206.8 539.979L68.5256 459.846C58.7362 454.035 59.1951 444.859 66.3841 440.119Z" fill="#C7A8F9"/>
<path opacity="0.2683" d="M66.5372 440.119L208.789 359.221C217.201 354.328 227.45 354.022 236.168 358.304L374.29 438.437C381.479 443.636 382.856 454.035 374.902 458.623L233.874 539.061C225.614 543.802 215.519 544.261 206.953 539.979L68.8315 459.999C58.8892 454.035 59.5011 444.859 66.5372 440.119Z" fill="#C7A7F9"/>
<path opacity="0.2713" d="M66.8428 440.119L208.941 359.374C217.354 354.481 227.602 354.175 236.321 358.457L374.137 438.436C381.326 443.636 382.703 454.035 374.749 458.623L233.874 538.908C225.614 543.649 215.519 544.108 206.953 539.826L69.1372 459.999C59.1949 454.035 59.8067 444.859 66.8428 440.119Z" fill="#C6A6F9"/>
<path opacity="0.2744" d="M66.9958 440.119L208.788 359.374C217.201 354.481 227.449 354.175 236.168 358.61L373.831 438.437C380.867 443.636 382.244 454.035 374.443 458.623L233.721 538.755C225.461 543.496 215.366 543.802 206.8 539.673L69.1372 459.999C59.5008 454.035 59.9597 444.859 66.9958 440.119Z" fill="#C5A5F9"/>
<path opacity="0.2774" d="M67.3018 440.119L208.942 359.527C217.354 354.634 227.603 354.328 236.321 358.763L373.831 438.59C380.867 443.789 382.244 454.188 374.443 458.623L234.027 538.755C225.767 543.496 215.672 543.802 207.106 539.673L69.5962 459.999C59.6539 454.035 60.2657 444.859 67.3018 440.119Z" fill="#C5A4F9"/>
<path opacity="0.2805" d="M67.6078 440.119L209.095 359.68C217.507 354.786 227.756 354.481 236.321 358.915L373.678 438.589C380.714 443.789 382.091 454.035 374.29 458.623L234.027 538.603C225.767 543.343 215.672 543.649 207.259 539.52L70.0551 459.999C59.9599 454.035 60.5717 444.859 67.6078 440.119Z" fill="#C4A3F9"/>
<path opacity="0.2835" d="M67.7608 440.119L208.942 359.833C217.354 354.939 227.603 354.633 236.168 359.068L373.219 438.589C380.255 443.789 381.632 454.035 373.831 458.623L233.874 538.297C225.614 543.037 215.519 543.343 207.106 539.214L70.0552 459.846C60.2658 453.882 60.7247 444.706 67.7608 440.119Z" fill="#C3A2F9"/>
<path opacity="0.2866" d="M68.067 440.119L209.095 359.833C217.508 354.939 227.603 354.633 236.322 359.068L373.22 438.436C380.256 443.636 381.632 453.882 373.831 458.47L234.027 538.144C225.767 542.884 215.825 543.19 207.259 539.061L70.3613 459.846C60.419 453.882 61.0309 444.706 68.067 440.119Z" fill="#C3A1F9"/>
<path opacity="0.2896" d="M68.2196 440.119L209.095 359.986C217.354 355.092 227.603 354.787 236.321 359.221L373.066 438.59C380.102 443.789 381.479 454.035 373.678 458.623L234.027 538.297C225.767 543.037 215.825 543.343 207.259 539.214L70.514 459.999C60.7246 453.882 61.3365 444.707 68.2196 440.119Z" fill="#C2A0F9"/>
<path opacity="0.2927" d="M68.5254 440.119L209.094 360.139C217.354 355.245 227.602 354.939 236.168 359.374L372.76 438.589C379.796 443.789 381.173 454.035 373.372 458.623L233.874 538.144C225.767 542.884 215.672 543.19 207.259 539.061L70.8198 459.999C61.0305 453.882 61.4893 444.706 68.5254 440.119Z" fill="#C29FF9"/>
<path opacity="0.2957" d="M68.6786 440.119L209.095 360.292C217.354 355.398 227.603 355.092 236.168 359.527L372.455 438.59C379.491 443.789 380.867 454.035 373.066 458.47L233.874 537.838C225.767 542.579 215.672 542.884 207.259 538.755L70.973 459.846C61.1836 453.882 61.7955 444.707 68.6786 440.119Z" fill="#C19EF8"/>
<path opacity="0.2988" d="M68.9844 440.119L209.248 360.445C217.507 355.551 227.756 355.245 236.321 359.68L372.454 438.589C379.491 443.789 380.867 454.035 373.066 458.47L234.027 537.685C225.92 542.426 215.825 542.732 207.412 538.603L71.2788 459.693C61.4894 453.882 61.9483 444.706 68.9844 440.119Z" fill="#C09DF8"/>
<path opacity="0.3018" d="M69.2905 440.119L209.248 360.445C217.507 355.704 227.756 355.245 236.321 359.68L372.302 438.589C379.338 443.636 380.714 453.882 372.914 458.47L234.027 537.685C225.92 542.426 215.825 542.731 207.412 538.602L71.4319 459.846C61.6426 453.729 62.2544 444.706 69.2905 440.119Z" fill="#C09CF8"/>
<path opacity="0.3049" d="M69.4431 440.119L209.247 360.598C217.507 355.857 227.602 355.551 236.168 359.833L371.995 438.589C379.031 443.636 380.408 453.882 372.607 458.47L234.027 537.379C225.92 542.12 215.978 542.426 207.565 538.297L71.8905 459.693C61.9481 453.729 62.56 444.706 69.4431 440.119Z" fill="#BF9BF8"/>
<path opacity="0.3079" d="M69.7492 439.966L209.4 360.598C217.66 355.857 227.756 355.551 236.321 359.833L371.843 438.436C378.879 443.483 380.255 453.729 372.454 458.317L234.027 537.226C225.92 541.967 215.978 542.273 207.565 537.991L71.8906 459.54C62.2542 453.729 62.7131 444.706 69.7492 439.966Z" fill="#BE9AF8"/>
<path opacity="0.311" d="M69.9022 439.966L209.248 360.751C217.507 356.01 227.603 355.704 236.168 359.986L371.537 438.589C378.573 443.636 379.949 453.882 372.149 458.317L234.027 537.073C225.92 541.814 215.978 542.12 207.565 537.838L72.1966 459.387C62.4073 453.729 63.0191 444.707 69.9022 439.966Z" fill="#BE99F8"/>
<path opacity="0.314" d="M70.2082 439.966L209.401 360.751C217.66 356.01 227.756 355.704 236.321 359.986L371.537 438.437C378.573 443.483 379.797 453.729 372.149 458.164L234.027 536.92C225.92 541.661 215.978 541.967 207.565 537.685L72.3497 459.387C62.7133 453.729 63.3251 444.707 70.2082 439.966Z" fill="#BD98F8"/>
<path opacity="0.3171" d="M70.3609 439.966L209.247 360.903C217.507 356.163 227.602 355.857 236.015 360.139L371.078 438.436C378.114 443.483 379.337 453.729 371.69 458.164L234.027 536.767C225.92 541.508 215.978 541.814 207.718 537.532L72.8082 459.387C63.0189 453.576 63.4778 444.553 70.3609 439.966Z" fill="#BC97F8"/>
<path opacity="0.3201" d="M70.6667 439.966L209.4 361.056C217.66 356.316 227.755 356.01 236.168 360.292L370.925 438.437C377.961 443.483 379.184 453.729 371.536 458.164L233.874 536.615C225.767 541.355 215.825 541.661 207.565 537.379L72.8082 459.387C63.1718 453.576 63.7836 444.554 70.6667 439.966Z" fill="#BC96F8"/>
<path opacity="0.3232" d="M70.9729 439.966L209.553 361.209C217.813 356.469 227.756 356.163 236.321 360.445L370.925 438.589C377.808 443.636 379.185 453.729 371.537 458.317L234.027 536.462C225.92 541.202 216.131 541.508 207.718 537.226L73.1143 459.234C63.4779 453.576 64.0898 444.554 70.9729 439.966Z" fill="#BB95F8"/>
<path opacity="0.3262" d="M71.1259 439.966L209.401 361.209C217.66 356.469 227.603 356.163 236.168 360.445L370.619 438.437C377.502 443.483 378.879 453.576 371.231 458.011L234.027 536.309C225.92 541.049 216.131 541.355 207.718 537.073L73.4203 459.234C63.7839 453.576 64.2428 444.554 71.1259 439.966Z" fill="#BA94F8"/>
<path opacity="0.3293" d="M71.4315 439.966L209.553 361.362C217.66 356.621 227.755 356.316 236.168 360.598L370.466 438.436C377.349 443.483 378.726 453.576 371.078 458.011L234.027 536.156C225.92 540.896 216.13 541.202 207.871 536.92L73.7259 459.234C63.9366 453.576 64.5484 444.553 71.4315 439.966Z" fill="#BA93F8"/>
<path opacity="0.3323" d="M71.5849 439.966L209.554 361.515C217.66 356.775 227.756 356.469 236.168 360.751L370.16 438.437C377.043 443.483 378.42 453.576 370.772 458.011L234.027 536.003C226.073 540.744 216.131 541.049 207.871 536.768L73.8793 459.082C64.2429 453.576 64.7018 444.554 71.5849 439.966Z" fill="#B992F8"/>
<path opacity="0.3354" d="M71.8906 439.966L209.553 361.668C217.66 356.927 227.756 356.622 236.168 360.903L370.007 438.589C376.89 443.636 378.267 453.729 370.619 458.164L234.027 535.85C226.073 540.59 216.131 540.896 207.871 536.614L74.0321 459.081C64.5486 453.423 65.0075 444.554 71.8906 439.966Z" fill="#B991F8"/>
<path opacity="0.3384" d="M72.0435 439.966L209.553 361.668C217.66 356.927 227.755 356.622 236.168 360.903L369.854 438.437C376.737 443.483 378.114 453.576 370.466 458.011L234.027 535.697C226.073 540.285 216.131 540.743 207.871 536.461L74.1849 459.081C64.7015 453.423 65.3133 444.554 72.0435 439.966Z" fill="#B890F8"/>
<path opacity="0.3415" d="M72.3497 439.966L209.707 361.821C217.813 357.08 227.756 356.774 236.168 361.056L369.701 438.436C376.585 443.483 377.961 453.576 370.313 458.011L234.18 535.697C226.226 540.284 216.437 540.59 208.177 536.461L74.797 459.234C65.0077 453.423 65.4665 444.553 72.3497 439.966Z" fill="#B78FF7"/>
<path opacity="0.3445" d="M72.6555 439.966L209.706 361.974C217.813 357.233 227.756 356.927 236.168 361.209L369.395 438.589C376.279 443.636 377.655 453.576 370.007 458.011L234.027 535.391C226.073 539.979 216.284 540.285 208.024 536.156L74.7969 458.929C65.1605 453.423 65.7724 444.554 72.6555 439.966Z" fill="#B78EF7"/>
<path opacity="0.3476" d="M72.8086 439.966L209.707 362.127C217.813 357.386 227.756 357.08 236.168 361.362L369.243 438.589C376.126 443.636 377.502 453.576 369.854 458.011L234.027 535.238C226.073 539.826 216.284 540.132 208.024 536.003L74.95 458.928C65.4666 453.423 66.0784 444.553 72.8086 439.966Z" fill="#B68DF7"/>
<path opacity="0.3506" d="M73.1146 439.966L209.86 362.127C217.966 357.386 227.909 357.08 236.322 361.362L369.243 438.436C376.126 443.483 377.502 453.423 369.854 457.858L234.027 535.238C226.073 539.826 216.284 540.132 208.024 536.003L75.103 459.081C65.7726 453.423 66.2314 444.401 73.1146 439.966Z" fill="#B58CF7"/>
<path opacity="0.3537" d="M73.2673 439.966L209.706 362.28C217.813 357.539 227.756 357.233 236.015 361.515L368.783 438.437C375.667 443.483 376.89 453.423 369.395 457.858L234.027 535.085C226.073 539.673 216.284 539.979 208.177 535.85L75.5617 458.929C65.9253 453.27 66.5371 444.401 73.2673 439.966Z" fill="#B58BF7"/>
<path opacity="0.3567" d="M73.5733 439.966L209.859 362.433C217.966 357.692 227.756 357.386 236.168 361.668L368.631 438.589C375.514 443.636 376.737 453.576 369.242 458.011L234.027 535.085C226.073 539.673 216.284 539.979 208.177 535.85L75.7147 459.081C66.2313 453.27 66.8431 444.401 73.5733 439.966Z" fill="#B48AF7"/>
<path opacity="0.3598" d="M73.7264 439.966L209.86 362.586C217.966 357.845 227.756 357.539 236.169 361.821L368.478 438.589C375.361 443.636 376.585 453.576 369.09 457.858L234.18 534.779C226.226 539.367 216.59 539.673 208.33 535.544L76.0208 458.928C66.5373 453.27 66.9962 444.401 73.7264 439.966Z" fill="#B389F7"/>
<path opacity="0.3628" d="M74.0323 439.966L209.86 362.586C217.966 357.845 227.756 357.539 236.168 361.821L368.325 438.436C375.208 443.483 376.432 453.423 368.937 457.705L234.18 534.626C226.226 539.214 216.59 539.52 208.33 535.391L76.1737 458.928C66.6902 453.27 67.3021 444.401 74.0323 439.966Z" fill="#B388F7"/>
<path opacity="0.3659" d="M74.3379 439.813L210.012 362.586C218.119 357.845 227.908 357.539 236.168 361.821L368.172 438.436C375.055 443.483 376.278 453.27 368.783 457.705L234.18 534.473C226.226 539.061 216.589 539.367 208.483 535.238L76.4793 458.775C66.9959 453.27 67.4548 444.401 74.3379 439.813Z" fill="#B287F7"/>
<path opacity="0.3689" d="M74.4911 439.813L210.012 362.739C217.966 357.998 227.909 357.845 236.168 361.974L367.866 438.437C374.596 443.33 375.973 453.27 368.478 457.705L234.18 534.321C226.226 538.908 216.59 539.214 208.483 535.085L76.6325 458.776C67.302 453.117 67.7609 444.401 74.4911 439.813Z" fill="#B286F7"/>
<path opacity="0.372" d="M74.7969 439.813L210.012 362.891C217.966 358.304 227.909 357.998 236.168 362.127L367.713 438.436C374.443 443.33 375.82 453.27 368.325 457.705L234.18 534.168C226.226 538.755 216.59 539.061 208.483 534.932L76.9383 458.775C67.4549 453.117 68.0667 444.401 74.7969 439.813Z" fill="#B185F7"/>
<path opacity="0.375" d="M74.9496 439.813L210.012 362.891C217.966 358.304 227.755 357.998 236.168 362.127L367.56 438.284C374.29 443.177 375.666 453.117 368.171 457.552L234.18 534.015C226.379 538.602 216.589 538.908 208.482 534.779L77.091 458.775C67.7605 453.117 68.2194 444.401 74.9496 439.813Z" fill="#B084F7"/>
<path opacity="0.378" d="M75.2559 439.813L210.165 363.044C218.119 358.457 227.909 358.151 236.168 362.28L367.407 438.436C374.137 443.33 375.514 453.27 368.019 457.552L234.333 533.862C226.532 538.449 216.896 538.755 208.636 534.626L77.3973 458.775C67.9139 453.117 68.5257 444.4 75.2559 439.813Z" fill="#B083F7"/>
<path opacity="0.3811" d="M75.4088 439.813L210.012 363.197C217.966 358.61 227.756 358.304 236.015 362.433L366.948 438.437C373.678 443.33 375.055 453.27 367.56 457.552L234.18 533.709C226.379 538.297 216.743 538.603 208.636 534.474L77.7031 458.623C68.2197 453.117 68.8315 444.248 75.4088 439.813Z" fill="#AF82F7"/>
<path opacity="0.3841" d="M75.7147 439.813L210.165 363.35C218.119 358.762 227.909 358.457 236.168 362.586L366.948 438.436C373.678 443.33 375.055 453.27 367.56 457.552L234.18 533.556C226.379 538.144 216.743 538.45 208.636 534.321L77.8561 458.623C68.5257 453.117 68.9845 444.248 75.7147 439.813Z" fill="#AE81F7"/>
<path opacity="0.3872" d="M76.0205 439.813L210.165 363.35C218.119 358.762 227.908 358.457 236.168 362.586L366.795 438.284C373.525 443.177 374.902 452.964 367.407 457.399L234.333 533.403C226.532 537.991 216.895 538.297 208.789 534.168L78.162 458.47C68.6785 452.964 69.2904 444.248 76.0205 439.813Z" fill="#AE80F6"/>
<path opacity="0.3902" d="M76.1737 439.813L210.165 363.503C218.119 358.915 227.909 358.61 236.015 362.739L366.489 438.437C373.219 443.33 374.596 453.117 367.101 457.552L234.18 533.403C226.379 537.991 216.743 538.297 208.636 534.168L78.3151 458.623C68.9846 452.964 69.5964 444.248 76.1737 439.813Z" fill="#AD7FF6"/>
<path opacity="0.3933" d="M76.4794 439.813L210.318 363.656C218.272 359.068 227.908 358.762 236.168 362.891L366.336 438.436C373.066 443.33 374.29 453.117 366.948 457.399L234.18 533.097C226.379 537.685 216.742 537.991 208.789 533.862L78.6208 458.47C69.2903 452.964 69.7492 444.248 76.4794 439.813Z" fill="#AC7EF6"/>
<path opacity="0.3963" d="M76.6326 439.813L210.166 363.809C218.119 359.221 227.756 358.915 236.016 363.044L366.03 438.436C372.761 443.33 373.984 453.117 366.642 457.399L234.18 532.944C226.379 537.532 216.896 537.838 208.789 533.709L78.7741 458.47C69.4436 452.964 70.0554 444.248 76.6326 439.813Z" fill="#AC7DF6"/>
<path opacity="0.3994" d="M76.9384 439.813L210.318 363.809C218.272 359.221 227.909 358.915 236.168 363.044L366.03 438.436C372.76 443.33 373.984 453.117 366.642 457.399L234.333 532.944C226.532 537.532 217.049 537.838 208.942 533.709L79.0798 458.47C69.7493 452.964 70.2082 444.248 76.9384 439.813Z" fill="#AB7CF6"/>
<path opacity="0.4024" d="M77.091 439.813L210.318 363.962C218.272 359.374 227.908 359.068 236.015 363.197L365.724 438.437C372.454 443.33 373.678 453.117 366.336 457.399L234.18 532.791C226.379 537.379 216.895 537.685 208.788 533.556L79.2325 458.47C70.0549 452.964 70.5138 444.248 77.091 439.813Z" fill="#AA7BF6"/>
<path opacity="0.4055" d="M77.3973 439.813L210.318 364.115C218.272 359.527 227.909 359.221 236.015 363.35L365.419 438.436C372.149 443.33 373.372 453.117 366.03 457.399L234.18 532.638C226.379 537.226 216.896 537.379 208.942 533.403L79.5387 458.47C70.2082 452.811 70.8201 444.248 77.3973 439.813Z" fill="#AA7AF6"/>
<path opacity="0.4085" d="M77.703 439.813L210.471 364.268C218.272 359.68 228.061 359.374 236.168 363.503L365.418 438.437C372.148 443.33 373.372 452.965 366.03 457.399L234.333 532.486C226.532 536.92 217.048 537.226 209.095 533.25L79.8444 458.317C70.5139 452.812 70.9728 444.248 77.703 439.813Z" fill="#A979F6"/>
<path opacity="0.4116" d="M77.8562 439.813L210.471 364.268C218.272 359.68 227.909 359.374 236.168 363.503L365.266 438.437C371.996 443.33 373.219 452.965 365.877 457.246L234.333 532.333C226.532 536.768 217.049 537.073 209.095 533.097L79.9976 458.317C70.8201 452.812 71.279 444.248 77.8562 439.813Z" fill="#A978F6"/>
<path opacity="0.4146" d="M78.1619 439.813L210.471 364.421C218.272 359.833 227.909 359.527 236.015 363.656L364.96 438.437C371.69 443.33 372.913 452.964 365.571 457.246L234.333 532.18C226.685 536.614 217.201 536.92 209.095 532.944L80.3034 458.317C70.9729 452.811 71.5847 444.095 78.1619 439.813Z" fill="#A877F6"/>
<path opacity="0.4177" d="M78.3152 439.813L210.471 364.574C218.272 359.986 227.909 359.68 236.016 363.809L364.654 438.436C371.231 443.33 372.608 452.964 365.266 457.246L234.18 532.027C226.532 536.461 217.049 536.767 209.095 532.791L80.4566 458.317C71.2791 452.811 71.7379 444.095 78.3152 439.813Z" fill="#A776F6"/>
<path opacity="0.4207" d="M78.6207 439.813L210.624 364.727C218.425 360.139 228.061 359.833 236.168 363.962L364.653 438.437C371.231 443.33 372.607 452.964 365.265 457.246L234.486 531.874C226.838 536.309 217.354 536.615 209.4 532.638L80.9151 458.164C71.4316 452.659 72.0434 444.095 78.6207 439.813Z" fill="#A775F6"/>
<path opacity="0.4238" d="M78.7741 439.813L210.471 364.727C218.272 360.139 227.909 359.833 236.016 363.962L364.348 438.437C370.925 443.33 372.302 452.964 364.96 457.246L234.333 531.874C226.685 536.309 217.202 536.615 209.248 532.638L80.9155 458.317C71.738 452.659 72.3498 444.095 78.7741 439.813Z" fill="#A674F6"/>
<path opacity="0.4268" d="M79.0798 439.66L210.624 364.727C218.425 360.139 228.062 359.833 236.015 363.962L364.195 438.284C370.772 443.177 372.149 452.812 364.807 456.941L234.333 531.415C226.685 535.85 217.202 536.156 209.248 532.18L81.2212 458.011C72.0437 452.659 72.5026 444.095 79.0798 439.66Z" fill="#A573F6"/>
<path opacity="0.4299" d="M79.3858 439.66L210.777 364.879C218.578 360.292 228.062 359.986 236.168 364.115L364.042 438.284C370.619 443.177 371.996 452.659 364.654 456.94L234.486 531.262C226.838 535.697 217.355 536.003 209.554 532.027L81.6802 458.011C72.1968 452.659 72.8086 444.095 79.3858 439.66Z" fill="#A572F6"/>
<path opacity="0.4329" d="M79.5383 439.66L210.624 365.032C218.425 360.445 227.908 360.292 236.015 364.268L363.736 438.437C370.313 443.177 371.536 452.811 364.347 457.093L234.333 531.262C226.685 535.697 217.354 536.003 209.4 532.027L81.6797 458.011C72.5022 452.659 72.9611 444.095 79.5383 439.66Z" fill="#A471F5"/>
<path opacity="0.436" d="M79.8445 439.66L210.777 365.032C218.578 360.445 228.061 360.292 236.168 364.268L363.736 438.284C370.313 443.024 371.537 452.659 364.348 456.94L234.486 531.109C226.838 535.544 217.507 535.85 209.553 531.874L81.9859 458.011C72.8084 452.659 73.2672 444.095 79.8445 439.66Z" fill="#A370F5"/>
<path opacity="0.439" d="M79.9975 439.66L210.777 365.185C218.578 360.751 228.061 360.445 236.015 364.421L363.43 438.284C370.007 443.024 371.231 452.659 364.042 456.94L234.486 530.956C226.838 535.391 217.507 535.697 209.553 531.721L82.2919 458.011C72.9614 452.506 73.5732 444.095 79.9975 439.66Z" fill="#A36FF5"/>
<path opacity="0.4421" d="M80.3034 439.66L210.777 365.338C218.578 360.903 228.062 360.598 236.015 364.574L363.124 438.284C369.701 443.024 370.925 452.658 363.736 456.94L234.333 530.803C226.685 535.238 217.354 535.544 209.554 531.568L82.4449 457.858C73.2674 452.506 73.7262 444.095 80.3034 439.66Z" fill="#A26EF5"/>
<path opacity="0.4451" d="M80.4562 439.66L210.777 365.491C218.578 361.056 228.061 360.751 236.015 364.727L362.971 438.437C369.548 443.177 370.772 452.812 363.583 456.941L234.333 530.65C226.685 535.085 217.354 535.391 209.553 531.415L82.5976 457.858C73.573 452.506 74.0319 444.095 80.4562 439.66Z" fill="#A26DF5"/>
<path opacity="0.4482" d="M80.7621 439.66L210.93 365.491C218.731 361.056 228.061 360.751 236.168 364.727L362.971 438.284C369.548 443.024 370.772 452.659 363.583 456.788L234.639 530.498C226.991 534.932 217.66 535.238 209.859 531.262L83.0565 457.858C73.726 452.506 74.3379 443.942 80.7621 439.66Z" fill="#A16CF5"/>
<path opacity="0.4512" d="M81.0681 439.66L210.93 365.644C218.578 361.209 228.061 360.903 236.015 364.88L362.665 438.284C369.242 443.024 370.466 452.659 363.277 456.788L234.486 530.344C226.838 534.779 217.66 535.085 209.706 531.109L83.2095 457.858C74.032 452.506 74.4909 443.942 81.0681 439.66Z" fill="#A06BF5"/>
<path opacity="0.4543" d="M81.2213 439.66L210.93 365.797C218.578 361.362 228.062 361.056 236.015 365.032L362.359 438.436C368.937 443.177 370.16 452.658 362.971 456.94L234.333 530.344C226.838 534.779 217.507 535.085 209.707 531.109L83.3627 457.858C74.3382 452.506 74.797 443.942 81.2213 439.66Z" fill="#A06AF5"/>
<path opacity="0.4573" d="M81.527 439.66L210.93 365.95C218.578 361.515 228.061 361.209 236.015 365.185L362.206 438.437C368.783 443.177 370.007 452.659 362.818 456.941L234.486 530.192C226.991 534.627 217.66 534.932 209.859 530.956L83.6684 457.858C74.4909 452.353 75.1027 443.942 81.527 439.66Z" fill="#9F69F5"/>
<path opacity="0.4604" d="M81.6798 439.66L210.93 365.95C218.578 361.515 228.061 361.209 236.015 365.185L362.053 438.284C368.63 443.024 369.854 452.506 362.665 456.635L234.486 529.886C226.991 534.321 217.66 534.627 209.859 530.65L83.8212 457.705C74.7966 452.353 75.2555 443.942 81.6798 439.66Z" fill="#9E68F5"/>
<path opacity="0.4634" d="M81.986 439.66L211.083 366.103C218.731 361.668 228.214 361.362 236.015 365.338L361.9 438.284C368.325 443.024 369.701 452.506 362.512 456.635L234.486 529.733C226.991 534.168 217.66 534.473 209.859 530.497L84.1274 457.705C74.9499 452.353 75.5617 443.942 81.986 439.66Z" fill="#9E67F5"/>
<path opacity="0.4665" d="M82.1388 439.66L210.93 366.256C218.578 361.821 227.908 361.515 235.862 365.491L361.441 438.437C367.866 443.177 369.242 452.659 362.053 456.788L234.333 529.733C226.838 534.168 217.507 534.474 209.859 530.498L84.2802 457.705C75.2556 452.353 75.7145 443.942 82.1388 439.66Z" fill="#9D66F5"/>
<path opacity="0.4695" d="M82.4449 439.66L211.083 366.409C218.731 361.974 228.062 361.668 236.015 365.644L361.442 438.437C367.866 443.177 369.242 452.659 362.053 456.788L234.486 529.58C226.991 534.015 217.813 534.321 210.012 530.345L84.5863 457.705C75.5618 452.353 76.0207 443.942 82.4449 439.66Z" fill="#9C65F5"/>
<path opacity="0.4726" d="M82.7506 439.66L211.236 366.409C218.884 361.974 228.214 361.668 236.168 365.644L361.441 438.284C367.866 443.024 369.089 452.506 362.053 456.635L234.639 529.427C227.144 533.862 217.966 534.015 210.165 530.192L84.892 457.705C75.7145 452.2 76.3264 443.942 82.7506 439.66Z" fill="#9C64F5"/>
<path opacity="0.4756" d="M82.9039 439.66L211.083 366.562C218.731 362.127 228.062 361.821 235.863 365.797L360.983 438.284C367.407 443.024 368.631 452.353 361.595 456.635L234.486 529.274C226.991 533.709 217.813 533.862 210.013 530.039L85.0453 457.552C76.0208 452.2 76.4797 443.942 82.9039 439.66Z" fill="#9B63F5"/>
<path opacity="0.4787" d="M83.2096 439.66L211.236 366.715C218.884 362.28 228.214 361.974 236.015 365.95L360.83 438.437C367.254 443.177 368.478 452.506 361.441 456.635L234.486 529.121C226.991 533.403 217.813 533.709 210.165 529.886L85.351 457.552C76.3264 452.2 76.7853 443.942 83.2096 439.66Z" fill="#9A62F4"/>
<path opacity="0.4817" d="M83.3627 439.66L211.236 366.868C218.884 362.433 228.215 362.127 236.016 366.103L360.677 438.437C367.101 443.177 368.325 452.506 361.289 456.635L234.486 528.968C226.991 533.25 217.813 533.556 210.165 529.733L85.5042 457.552C76.4796 452.2 77.0914 443.789 83.3627 439.66Z" fill="#9A61F4"/>
<path opacity="0.4848" d="M83.6682 439.66L211.236 366.868C218.884 362.433 228.061 362.127 236.015 366.103L360.523 438.284C366.948 443.024 368.171 452.353 361.135 456.482L234.638 528.815C227.143 533.097 217.966 533.403 210.318 529.58L85.6567 457.552C76.7851 452.2 77.244 443.789 83.6682 439.66Z" fill="#9960F4"/>
<path opacity="0.4878" d="M83.8213 439.507L211.236 366.868C218.884 362.433 228.061 362.127 235.862 366.103L360.218 438.284C366.642 443.024 367.866 452.353 360.829 456.482L234.486 528.662C226.991 532.944 217.966 533.25 210.165 529.427L85.9627 457.399C77.0911 452.2 77.55 443.789 83.8213 439.507Z" fill="#995FF4"/>
<path opacity="0.4909" d="M84.1274 439.507L211.389 367.021C218.884 362.586 228.214 362.28 236.015 366.256L360.065 438.284C366.489 443.024 367.713 452.353 360.677 456.482L234.486 528.51C226.991 532.791 217.966 533.097 210.318 529.274L86.2688 457.399C77.2443 452.047 77.8561 443.789 84.1274 439.507Z" fill="#985EF4"/>
<path opacity="0.4939" d="M84.4332 439.507L211.389 367.173C218.884 362.739 228.214 362.433 236.015 366.409L359.912 438.284C366.336 443.024 367.56 452.353 360.524 456.329L234.639 528.204C227.144 532.485 218.119 532.791 210.471 528.968L86.5746 457.246C77.5501 452.047 78.0089 443.789 84.4332 439.507Z" fill="#975DF4"/>
<path opacity="0.497" d="M84.5864 439.507L211.389 367.173C218.884 362.739 228.215 362.586 236.015 366.409L359.759 438.131C366.183 442.718 367.407 452.047 360.371 456.176L234.639 528.051C227.297 532.333 218.119 532.638 210.471 528.815L86.7278 457.093C77.7032 452.047 78.3151 443.789 84.5864 439.507Z" fill="#975CF4"/>
<path opacity="0.5" d="M84.8923 439.507L211.542 367.326C219.037 362.891 228.368 362.739 236.016 366.562L359.606 438.284C366.03 442.871 367.254 452.2 360.218 456.329L234.639 528.051C227.297 532.332 218.119 532.638 210.471 528.815L86.8808 457.246C78.0092 452.047 78.4681 443.789 84.8923 439.507Z" fill="#965BF4"/>
<path d="M361.594 422.991C361.594 422.991 352.264 421.921 354.252 432.473L235.403 363.503C227.602 359.527 218.425 359.833 210.93 364.268L104.624 424.826C94.2224 420.086 84.586 418.556 80.3031 425.438C72.5022 438.131 77.7028 445.012 82.1386 449.294C83.2093 450.365 84.433 451.435 86.1155 452.353C86.2685 452.506 86.2685 452.506 86.2685 452.506L209.706 524.075C217.354 527.898 226.379 527.592 233.874 523.31L359.453 451.588C359.453 451.588 377.808 440.578 361.594 422.991Z" fill="url(#paint1_linear)"/>
<mask id="mask0" style="mask-type:alpha" maskUnits="userSpaceOnUse" x="19" y="240" width="502" height="287">
<path d="M513.482 335.059C503.846 325.425 503.54 333.989 505.528 344.541L329.932 242.845C322.131 238.869 312.953 239.175 305.458 243.61L47.876 391.947C37.4748 387.207 27.8384 385.677 23.5556 392.559C15.7547 405.252 20.9553 412.133 25.3911 416.415C26.4618 417.486 27.6854 418.556 29.368 419.474C29.5209 419.627 29.5209 419.627 29.5209 419.627L209.706 523.922C217.354 527.745 226.379 527.439 233.874 523.157L510.576 363.656C510.729 363.809 531.837 353.563 513.482 335.059Z" fill="url(#paint2_linear)"/>
</mask>
<g mask="url(#mask0)">
<path opacity="0.4" d="M361.594 422.991C361.594 422.991 352.264 421.921 354.252 432.473L235.403 363.503C227.602 359.527 218.425 359.833 210.93 364.268L104.624 424.826C94.2224 420.086 84.586 418.556 80.3031 425.438C72.5022 438.131 77.7028 445.012 82.1386 449.294C83.2093 450.365 84.433 451.435 86.1155 452.353C86.2685 452.506 86.2685 452.506 86.2685 452.506L209.706 524.075C217.354 527.898 226.379 527.592 233.874 523.31L359.453 451.588C359.453 451.588 377.808 441.036 361.594 422.991Z" fill="url(#paint3_linear)"/>
</g>
<mask id="mask1" style="mask-type:alpha" maskUnits="userSpaceOnUse" x="19" y="240" width="502" height="287">
<path d="M513.482 335.059C503.846 325.425 503.54 333.989 505.528 344.541L329.932 242.845C322.131 238.869 312.953 239.175 305.458 243.61L47.876 391.947C37.4748 387.207 27.8384 385.677 23.5556 392.559C15.7547 405.252 20.9553 412.133 25.3911 416.415C26.4618 417.486 27.6854 418.556 29.368 419.474C29.5209 419.627 29.5209 419.627 29.5209 419.627L209.706 523.922C217.354 527.745 226.379 527.439 233.874 523.157L510.576 363.656C510.729 363.809 531.837 353.563 513.482 335.059Z" fill="url(#paint4_linear)"/>
</mask>
<g mask="url(#mask1)">
<path opacity="0.5" d="M361.594 422.991C361.594 422.991 352.264 421.921 354.252 432.473L235.403 363.503C227.602 359.527 218.425 359.833 210.93 364.268L104.624 424.826C94.2224 420.086 84.586 418.556 80.3031 425.438C72.5022 438.131 77.7028 445.012 82.1386 449.294C83.2093 450.365 84.433 451.435 86.1155 452.353C86.2685 452.506 86.2685 452.506 86.2685 452.506L209.706 524.075C217.354 527.898 226.379 527.592 233.874 523.31L359.453 451.588C359.453 451.588 377.502 440.73 361.594 422.991Z" fill="url(#paint5_linear)"/>
<path d="M84.1274 421.462L210.777 349.281C218.272 344.847 227.603 344.694 235.251 348.517L358.841 420.239C365.265 424.826 366.489 434.155 359.453 438.284L233.874 510.006C226.532 514.288 217.354 514.593 209.706 510.77L86.2688 439.201C77.2443 434.002 77.8561 425.591 84.1274 421.462Z" fill="url(#paint6_linear)"/>
</g>
<path d="M94.2226 422.227L212.613 354.787C218.884 351.116 226.532 350.963 233.109 354.175L349.052 421.462C354.405 425.285 355.476 433.084 349.511 436.601L232.038 503.736C225.92 507.406 218.272 507.559 211.848 504.347L95.9051 437.213C88.5631 432.625 89.022 425.744 94.2226 422.227Z" fill="url(#paint7_linear)"/>
<g opacity="0.3">
<g opacity="0.3">
<path opacity="0.3" d="M114.872 301.416L57.5125 334.906L0 301.416L57.5125 267.925L114.872 301.416Z" fill="url(#paint8_linear)"/>
<path opacity="0.3" d="M114.872 290.711L57.5125 324.201L0 290.711L57.5125 257.22L114.872 290.711Z" fill="url(#paint9_linear)"/>
<path opacity="0.7" d="M114.872 290.711L57.5127 182.134V324.202L114.872 290.711Z" fill="url(#paint10_linear)"/>
<path opacity="0.7" d="M0 290.711L57.5125 182.134V324.202L0 290.711Z" fill="url(#paint11_linear)"/>
<path opacity="0.7" d="M114.872 301.416L57.5127 389.654V334.906L114.872 301.416Z" fill="url(#paint12_linear)"/>
<path opacity="0.7" d="M0 301.416L57.5125 389.654V334.906L0 301.416Z" fill="url(#paint13_linear)"/>
</g>
<g opacity="0.3">
<path opacity="0.3" d="M114.872 301.263L57.5125 334.753L0 301.263L57.5125 267.772L114.872 301.263Z" fill="url(#paint14_linear)"/>
<path opacity="0.3" d="M114.872 290.558L57.5125 324.049L0 290.558L57.5125 257.067L114.872 290.558Z" fill="url(#paint15_linear)"/>
<path opacity="0.7" d="M114.872 290.558L57.5127 181.981V324.048L114.872 290.558Z" fill="url(#paint16_linear)"/>
<path opacity="0.7" d="M0 290.558L57.5125 181.981V324.048L0 290.558Z" fill="url(#paint17_linear)"/>
<path opacity="0.7" d="M114.872 301.263L57.5127 389.501V334.753L114.872 301.263Z" fill="url(#paint18_linear)"/>
<path opacity="0.7" d="M0 301.263L57.5125 389.501V334.753L0 301.263Z" fill="url(#paint19_linear)"/>
</g>
</g>
<path d="M144.087 323.131L86.5745 356.622L29.062 323.131L86.5745 289.64L144.087 323.131Z" fill="url(#paint20_linear)"/>
<path d="M144.087 312.426L86.5745 345.917L29.062 312.426L86.5745 278.936L144.087 312.426Z" fill="url(#paint21_linear)"/>
<path opacity="0.7" d="M144.087 312.426L86.5747 203.849V345.917L144.087 312.426Z" fill="url(#paint22_linear)"/>
<path opacity="0.7" d="M29.062 312.426L86.5745 203.849V345.917L29.062 312.426Z" fill="url(#paint23_linear)"/>
<path opacity="0.7" d="M144.087 323.131L86.5747 411.369V356.622L144.087 323.131Z" fill="url(#paint24_linear)"/>
<path opacity="0.7" d="M29.062 323.131L86.5745 411.369V356.622L29.062 323.131Z" fill="url(#paint25_linear)"/>
<path d="M144.087 322.978L86.5745 356.469L29.062 322.978L86.5745 289.487L144.087 322.978Z" fill="url(#paint26_linear)"/>
<path d="M144.087 312.273L86.5745 345.764L29.062 312.273L86.5745 278.783L144.087 312.273Z" fill="url(#paint27_linear)"/>
<path opacity="0.7" d="M144.087 312.273L86.5747 203.696V345.764L144.087 312.273Z" fill="url(#paint28_linear)"/>
<path opacity="0.7" d="M29.062 312.273L86.5745 203.696V345.764L29.062 312.273Z" fill="url(#paint29_linear)"/>
<path opacity="0.7" d="M144.087 322.978L86.5747 411.216V356.469L144.087 322.978Z" fill="url(#paint30_linear)"/>
<path opacity="0.7" d="M29.062 322.978L86.5745 411.216V356.469L29.062 322.978Z" fill="url(#paint31_linear)"/>
<g opacity="0.3">
<g opacity="0.3">
<path opacity="0.3" d="M411 321.449L372.301 344.082L333.45 321.449L372.301 298.816L411 321.449Z" fill="url(#paint32_linear)"/>
<path opacity="0.3" d="M411 314.108L372.301 336.741L333.45 314.108L372.301 291.475L411 314.108Z" fill="url(#paint33_linear)"/>
<path opacity="0.7" d="M411 314.108L372.301 240.857V336.741L411 314.108Z" fill="url(#paint34_linear)"/>
<path opacity="0.7" d="M333.45 314.108L372.301 240.857V336.741L333.45 314.108Z" fill="url(#paint35_linear)"/>
<path opacity="0.7" d="M411 321.449L372.301 380.937V344.082L411 321.449Z" fill="url(#paint36_linear)"/>
<path opacity="0.7" d="M333.45 321.449L372.301 380.937V344.082L333.45 321.449Z" fill="url(#paint37_linear)"/>
</g>
<g opacity="0.3">
<path opacity="0.3" d="M411 321.755L372.301 344.388L333.45 321.755L372.301 299.275L411 321.755Z" fill="url(#paint38_linear)"/>
<path opacity="0.3" d="M411 314.567L372.301 337.2L333.45 314.567L372.301 291.934L411 314.567Z" fill="url(#paint39_linear)"/>
<path opacity="0.7" d="M411 314.567L372.301 241.163V337.2L411 314.567Z" fill="url(#paint40_linear)"/>
<path opacity="0.7" d="M333.45 314.568L372.301 241.164V337.201L333.45 314.568Z" fill="url(#paint41_linear)"/>
<path opacity="0.7" d="M411 321.755L372.301 381.395V344.388L411 321.755Z" fill="url(#paint42_linear)"/>
<path opacity="0.7" d="M333.45 321.755L372.301 381.395V344.388L333.45 321.755Z" fill="url(#paint43_linear)"/>
</g>
</g>
<path d="M389.127 335.671L350.275 358.304L311.424 335.671L350.275 313.038L389.127 335.671Z" fill="url(#paint44_linear)"/>
<path d="M389.127 328.484L350.275 351.116L311.424 328.484L350.275 305.851L389.127 328.484Z" fill="url(#paint45_linear)"/>
<path opacity="0.7" d="M389.127 328.483L350.275 255.079V351.116L389.127 328.483Z" fill="url(#paint46_linear)"/>
<path opacity="0.7" d="M311.424 328.483L350.275 255.079V351.116L311.424 328.483Z" fill="url(#paint47_linear)"/>
<path opacity="0.7" d="M389.127 335.671L350.275 395.312V358.304L389.127 335.671Z" fill="url(#paint48_linear)"/>
<path opacity="0.7" d="M311.424 335.671L350.275 395.312V358.304L311.424 335.671Z" fill="url(#paint49_linear)"/>
<path d="M389.127 336.13L350.275 358.762L311.424 336.13L350.275 313.497L389.127 336.13Z" fill="url(#paint50_linear)"/>
<path d="M389.127 328.789L350.275 351.422L311.424 328.789L350.275 306.156L389.127 328.789Z" fill="url(#paint51_linear)"/>
<path opacity="0.7" d="M389.127 328.789L350.275 255.538V351.422L389.127 328.789Z" fill="url(#paint52_linear)"/>
<path opacity="0.7" d="M311.424 328.79L350.275 255.539V351.423L311.424 328.79Z" fill="url(#paint53_linear)"/>
<path opacity="0.7" d="M389.127 336.13L350.275 395.618V358.763L389.127 336.13Z" fill="url(#paint54_linear)"/>
<path opacity="0.7" d="M311.424 336.13L350.275 395.618V358.763L311.424 336.13Z" fill="url(#paint55_linear)"/>
<path opacity="0.4" d="M338.498 396.535L338.345 107.507C337.886 109.189 336.815 110.718 334.979 111.788L231.121 171.123C225.614 174.335 218.884 174.488 213.377 171.735L110.895 112.4C107.989 110.718 106.459 108.577 106 106.436V394.7C105.389 397.606 106.918 400.664 110.895 403.111L213.377 462.446C219.037 465.198 225.767 465.046 231.121 461.834L334.979 402.499C337.274 401.123 338.345 398.829 338.498 396.535Z" fill="url(#paint56_linear)"/>
<path d="M108.753 390.112L213.377 330.472C218.884 327.26 225.767 327.107 231.426 329.86L333.909 389.348C338.65 392.712 339.568 399.594 334.367 402.652L230.509 461.987C225.002 465.199 218.272 465.351 212.765 462.599L110.283 403.264C103.706 399.288 104.165 393.171 108.753 390.112Z" fill="url(#paint57_linear)"/>
<path d="M338.191 396.229C338.344 398.676 337.273 401.123 334.673 402.652L230.814 461.987C225.308 465.199 218.578 465.351 213.071 462.599L110.589 403.264C107.53 401.429 106 399.135 105.694 396.841V426.05C104.929 428.955 106.153 432.472 110.436 434.919L212.918 494.254C218.578 497.007 225.308 496.854 230.661 493.643L334.52 434.308C337.121 432.778 338.191 430.332 338.038 427.885L338.191 396.229Z" fill="url(#paint58_linear)"/>
<path d="M108.753 363.197L213.377 303.556C218.884 300.345 225.767 300.192 231.426 302.945L333.909 362.433C338.65 365.797 339.568 372.679 334.367 375.737L230.509 435.072C225.002 438.284 218.272 438.436 212.765 435.684L110.283 376.349C103.706 372.373 104.165 366.256 108.753 363.197Z" fill="url(#paint59_linear)"/>
<g opacity="0.7">
<path opacity="0.7" d="M221.943 263.949C219.036 263.949 215.977 263.337 213.224 261.961L110.742 202.626C107.377 200.638 105.541 197.885 105.388 194.98C105.388 192.38 106.612 189.933 109.059 188.404L213.683 128.763C219.495 125.399 226.378 125.246 232.344 128.151L334.826 187.639C337.579 189.627 339.262 192.839 339.109 195.897C338.956 198.497 337.579 200.638 335.285 202.014L231.426 261.349C228.826 263.184 225.461 263.949 221.943 263.949ZM109.977 189.474C107.988 190.851 106.765 192.839 106.765 194.98C106.765 197.426 108.447 199.72 111.354 201.555L213.836 260.89C219.342 263.643 225.767 263.337 230.967 260.279L334.826 200.944C336.815 199.873 337.885 198.038 338.038 195.897C338.191 193.297 336.815 190.545 334.367 188.71L231.885 129.375C226.378 126.622 219.801 126.775 214.448 129.986L109.977 189.474Z" fill="url(#paint60_linear)"/>
</g>
<path d="M305.611 270.984L227.144 316.708L148.676 270.984L227.144 225.259L305.611 270.984Z" fill="url(#paint61_linear)"/>
<path d="M305.611 256.303L227.144 302.027L148.676 256.303L227.144 210.578L305.611 256.303Z" fill="url(#paint62_linear)"/>
<path opacity="0.7" d="M305.611 256.303L227.144 107.965V302.027L305.611 256.303Z" fill="url(#paint63_linear)"/>
<path opacity="0.7" d="M148.676 256.303L227.144 107.965V302.027L148.676 256.303Z" fill="url(#paint64_linear)"/>
<path opacity="0.7" d="M305.611 270.984L227.144 391.489V316.708L305.611 270.984Z" fill="url(#paint65_linear)"/>
<path opacity="0.7" d="M148.676 270.984L227.144 391.489V316.708L148.676 270.984Z" fill="url(#paint66_linear)"/>
<path d="M305.611 270.983L227.144 316.708L148.676 270.983L227.144 225.259L305.611 270.983Z" fill="url(#paint67_linear)"/>
<path d="M305.611 256.15L227.144 301.874L148.676 256.15L227.144 210.425L305.611 256.15Z" fill="url(#paint68_linear)"/>
<path opacity="0.7" d="M305.611 256.15L227.144 107.812V301.874L305.611 256.15Z" fill="url(#paint69_linear)"/>
<path opacity="0.7" d="M148.676 256.15L227.144 107.812V301.874L148.676 256.15Z" fill="url(#paint70_linear)"/>
<path opacity="0.7" d="M305.611 270.983L227.144 391.335V316.708L305.611 270.983Z" fill="url(#paint71_linear)"/>
<path opacity="0.7" d="M148.676 270.983L227.144 391.335V316.708L148.676 270.983Z" fill="url(#paint72_linear)"/>
<g opacity="0.2">
<g opacity="0.2">
<path opacity="0.2" d="M292.457 261.349L213.989 307.074L135.521 261.349L213.989 215.625L292.457 261.349Z" fill="url(#paint73_linear)"/>
<path opacity="0.2" d="M292.457 246.668L213.989 292.393L135.521 246.668L213.989 200.944L292.457 246.668Z" fill="url(#paint74_linear)"/>
<path opacity="0.7" d="M292.457 246.668L213.989 98.3311V292.393L292.457 246.668Z" fill="url(#paint75_linear)"/>
<path opacity="0.7" d="M135.521 246.668L213.989 98.3311V292.393L135.521 246.668Z" fill="url(#paint76_linear)"/>
<path opacity="0.7" d="M292.457 261.349L213.989 381.854V307.074L292.457 261.349Z" fill="url(#paint77_linear)"/>
<path opacity="0.7" d="M135.521 261.349L213.989 381.854V307.074L135.521 261.349Z" fill="url(#paint78_linear)"/>
</g>
<g opacity="0.2">
<path opacity="0.2" d="M292.457 261.196L213.989 306.921L135.521 261.196L213.989 215.472L292.457 261.196Z" fill="url(#paint79_linear)"/>
<path opacity="0.2" d="M292.457 246.515L213.989 292.24L135.521 246.515L213.989 200.791L292.457 246.515Z" fill="url(#paint80_linear)"/>
<path opacity="0.7" d="M292.457 246.515L213.989 98.178V292.24L292.457 246.515Z" fill="url(#paint81_linear)"/>
<path opacity="0.7" d="M135.521 246.515L213.989 98.178V292.24L135.521 246.515Z" fill="url(#paint82_linear)"/>
<path opacity="0.7" d="M292.457 261.196L213.989 381.701V306.921L292.457 261.196Z" fill="url(#paint83_linear)"/>
<path opacity="0.7" d="M135.521 261.196L213.989 381.701V306.921L135.521 261.196Z" fill="url(#paint84_linear)"/>
</g>
</g>
<path opacity="0.7" d="M109.519 99.7073L214.142 40.0665C219.649 36.855 226.532 36.7021 232.191 39.4548L334.674 98.9426C339.416 102.307 340.333 109.189 335.133 112.247L231.274 171.582C225.767 174.794 219.037 174.946 213.531 172.194L111.048 112.859C104.471 108.883 104.777 102.766 109.519 99.7073Z" fill="url(#paint85_linear)"/>
<path d="M222.861 151.09C219.955 151.09 216.896 150.478 214.143 149.102L111.66 89.6141C108.295 87.6261 106.46 84.8734 106.307 81.9679C106.307 79.3681 107.53 76.9213 109.978 75.3921L214.601 15.7513C220.414 12.3869 227.297 12.234 233.262 15.1396L335.745 74.6275C338.498 76.6155 340.18 79.8269 340.028 82.8854C339.875 85.4851 338.498 87.6261 336.204 89.0024L232.345 148.337C229.591 150.172 226.226 151.09 222.861 151.09ZM110.895 76.4626C108.907 77.8389 107.683 79.8269 107.683 81.9679C107.683 84.4147 109.366 86.7085 112.272 88.5436L214.754 147.879C220.261 150.631 226.685 150.325 231.886 147.267L335.745 87.9319C337.733 86.8615 338.804 85.0264 338.957 82.8854C339.11 80.2857 337.733 77.533 335.286 75.6979L232.803 16.363C227.297 13.6103 220.72 13.7632 215.366 16.9747L110.895 76.4626Z" fill="url(#paint86_linear)"/>
<path d="M222.861 137.939C219.955 137.939 216.896 137.327 214.143 135.951L111.66 76.6156C108.295 74.6276 106.46 71.8749 106.307 68.9693C106.307 66.3696 107.53 63.9228 109.978 62.3935L214.601 2.75274C220.414 -0.611619 227.297 -0.764544 233.262 2.14103L335.745 61.6289C338.498 63.617 340.18 66.8284 340.028 69.8869C339.875 72.4866 338.498 74.6276 336.204 76.0039L232.345 135.339C229.591 137.174 226.226 137.939 222.861 137.939ZM110.895 63.464C108.907 64.8404 107.683 66.8284 107.683 68.9693C107.683 71.4161 109.366 73.71 112.272 75.5451L214.754 134.88C220.261 137.633 226.685 137.327 231.886 134.268L335.898 74.9334C337.886 73.8629 338.957 72.0278 339.11 69.8869C339.263 67.2872 337.886 64.5345 335.439 62.6994L232.956 3.36444C227.45 0.611783 220.873 0.764708 215.519 3.97614L110.895 63.464Z" fill="url(#paint87_linear)"/>
</g>
<defs>
<linearGradient id="paint0_linear" x1="734.65" y1="553.038" x2="105.728" y2="479.286" gradientUnits="userSpaceOnUse">
<stop stop-color="#4F24FF"/>
<stop offset="1" stop-color="#13FFE2"/>
</linearGradient>
<linearGradient id="paint1_linear" x1="230.131" y1="443.803" x2="212.432" y2="443.803" gradientUnits="userSpaceOnUse">
<stop stop-color="#C3ACFF"/>
<stop offset="1" stop-color="#DCCFFF"/>
</linearGradient>
<linearGradient id="paint2_linear" x1="323.704" y1="471.446" x2="317.424" y2="460.362" gradientUnits="userSpaceOnUse">
<stop stop-color="white"/>
<stop offset="1"/>
</linearGradient>
<linearGradient id="paint3_linear" x1="261.763" y1="506.819" x2="257.106" y2="498.598" gradientUnits="userSpaceOnUse">
<stop stop-color="#3300BF"/>
<stop offset="1" stop-color="#C0ABFF"/>
</linearGradient>
<linearGradient id="paint4_linear" x1="189.835" y1="514.443" x2="197.503" y2="501.251" gradientUnits="userSpaceOnUse">
<stop stop-color="white"/>
<stop offset="1"/>
</linearGradient>
<linearGradient id="paint5_linear" x1="180.625" y1="508.209" x2="184.588" y2="501.391" gradientUnits="userSpaceOnUse">
<stop stop-color="#3300BF"/>
<stop offset="1" stop-color="#C0ABFF"/>
</linearGradient>
<linearGradient id="paint6_linear" x1="593.128" y1="779.567" x2="214.251" y2="422.024" gradientUnits="userSpaceOnUse">
<stop stop-color="#9C74FF"/>
<stop offset="1" stop-color="#FFF6FF"/>
</linearGradient>
<linearGradient id="paint7_linear" x1="116.447" y1="453.38" x2="750.166" y2="308.217" gradientUnits="userSpaceOnUse">
<stop stop-color="#0E9CFF"/>
<stop offset="1" stop-color="#FFF6FF"/>
</linearGradient>
<linearGradient id="paint8_linear" x1="57.4545" y1="334.956" x2="57.4545" y2="267.992" gradientUnits="userSpaceOnUse">
<stop stop-color="#4FA4FF"/>
<stop offset="1" stop-color="#1339E2"/>
</linearGradient>
<linearGradient id="paint9_linear" x1="57.4545" y1="324.184" x2="57.4545" y2="257.219" gradientUnits="userSpaceOnUse">
<stop stop-color="#4F81FF"/>
<stop offset="1" stop-color="#1339E2"/>
</linearGradient>
<linearGradient id="paint10_linear" x1="51.589" y1="249.663" x2="124.144" y2="292.862" gradientUnits="userSpaceOnUse">
<stop stop-color="#4F24FF"/>
<stop offset="1" stop-color="#00FFE2"/>
</linearGradient>
<linearGradient id="paint11_linear" x1="-6.96757" y1="316.044" x2="59.4165" y2="251.004" gradientUnits="userSpaceOnUse">
<stop stop-color="#4F24FF"/>
<stop offset="1" stop-color="#00FFE2"/>
</linearGradient>
<linearGradient id="paint12_linear" x1="46.0362" y1="371.547" x2="110.111" y2="319.615" gradientUnits="userSpaceOnUse">
<stop stop-color="#4F24FF"/>
<stop offset="1" stop-color="#00FFE2"/>
</linearGradient>
<linearGradient id="paint13_linear" x1="7.91359" y1="364.616" x2="46.0599" y2="329.613" gradientUnits="userSpaceOnUse">
<stop stop-color="#4F24FF"/>
<stop offset="1" stop-color="#00FFE2"/>
</linearGradient>
<linearGradient id="paint14_linear" x1="57.4545" y1="334.77" x2="57.4545" y2="267.806" gradientUnits="userSpaceOnUse">
<stop stop-color="#4FA4FF"/>
<stop offset="1" stop-color="#1339E2"/>
</linearGradient>
<linearGradient id="paint15_linear" x1="57.4545" y1="323.998" x2="57.4545" y2="257.033" gradientUnits="userSpaceOnUse">
<stop stop-color="#4F81FF"/>
<stop offset="1" stop-color="#1339E2"/>
</linearGradient>
<linearGradient id="paint16_linear" x1="51.589" y1="249.477" x2="124.144" y2="292.676" gradientUnits="userSpaceOnUse">
<stop stop-color="#4F24FF"/>
<stop offset="1" stop-color="#00FFE2"/>
</linearGradient>
<linearGradient id="paint17_linear" x1="-6.96757" y1="315.858" x2="59.4165" y2="250.818" gradientUnits="userSpaceOnUse">
<stop stop-color="#4F24FF"/>
<stop offset="1" stop-color="#00FFE2"/>
</linearGradient>
<linearGradient id="paint18_linear" x1="46.0362" y1="371.361" x2="110.112" y2="319.429" gradientUnits="userSpaceOnUse">
<stop stop-color="#4F24FF"/>
<stop offset="1" stop-color="#00FFE2"/>
</linearGradient>
<linearGradient id="paint19_linear" x1="7.91359" y1="364.43" x2="46.0599" y2="329.427" gradientUnits="userSpaceOnUse">
<stop stop-color="#4F24FF"/>
<stop offset="1" stop-color="#00FFE2"/>
</linearGradient>
<linearGradient id="paint20_linear" x1="86.585" y1="356.672" x2="86.585" y2="289.707" gradientUnits="userSpaceOnUse">
<stop stop-color="#4FA4FF"/>
<stop offset="1" stop-color="#1339E2"/>
</linearGradient>
<linearGradient id="paint21_linear" x1="86.585" y1="345.899" x2="86.585" y2="278.935" gradientUnits="userSpaceOnUse">
<stop stop-color="#4F81FF"/>
<stop offset="1" stop-color="#1339E2"/>
</linearGradient>
<linearGradient id="paint22_linear" x1="80.7196" y1="271.378" x2="153.275" y2="314.578" gradientUnits="userSpaceOnUse">
<stop stop-color="#4F24FF"/>
<stop offset="1" stop-color="#00FFE2"/>
</linearGradient>
<linearGradient id="paint23_linear" x1="22.163" y1="337.76" x2="88.5472" y2="272.72" gradientUnits="userSpaceOnUse">
<stop stop-color="#4F24FF"/>
<stop offset="1" stop-color="#00FFE2"/>
</linearGradient>
<linearGradient id="paint24_linear" x1="75.1665" y1="393.263" x2="139.242" y2="341.331" gradientUnits="userSpaceOnUse">
<stop stop-color="#4F24FF"/>
<stop offset="1" stop-color="#00FFE2"/>
</linearGradient>
<linearGradient id="paint25_linear" x1="37.044" y1="386.332" x2="75.1901" y2="351.329" gradientUnits="userSpaceOnUse">
<stop stop-color="#4F24FF"/>
<stop offset="1" stop-color="#00FFE2"/>
</linearGradient>
<linearGradient id="paint26_linear" x1="86.585" y1="356.486" x2="86.585" y2="289.521" gradientUnits="userSpaceOnUse">
<stop stop-color="#4FA4FF"/>
<stop offset="1" stop-color="#1339E2"/>
</linearGradient>
<linearGradient id="paint27_linear" x1="86.585" y1="345.713" x2="86.585" y2="278.749" gradientUnits="userSpaceOnUse">
<stop stop-color="#4F81FF"/>
<stop offset="1" stop-color="#1339E2"/>
</linearGradient>
<linearGradient id="paint28_linear" x1="80.7196" y1="271.192" x2="153.275" y2="314.392" gradientUnits="userSpaceOnUse">
<stop stop-color="#4F24FF"/>
<stop offset="1" stop-color="#00FFE2"/>
</linearGradient>
<linearGradient id="paint29_linear" x1="22.163" y1="337.574" x2="88.5472" y2="272.534" gradientUnits="userSpaceOnUse">
<stop stop-color="#4F24FF"/>
<stop offset="1" stop-color="#00FFE2"/>
</linearGradient>
<linearGradient id="paint30_linear" x1="75.1665" y1="393.077" x2="139.242" y2="341.145" gradientUnits="userSpaceOnUse">
<stop stop-color="#4F24FF"/>
<stop offset="1" stop-color="#00FFE2"/>
</linearGradient>
<linearGradient id="paint31_linear" x1="37.044" y1="386.146" x2="75.1901" y2="351.143" gradientUnits="userSpaceOnUse">
<stop stop-color="#4F24FF"/>
<stop offset="1" stop-color="#00FFE2"/>
</linearGradient>
<linearGradient id="paint32_linear" x1="372.273" y1="344.038" x2="372.273" y2="298.821" gradientUnits="userSpaceOnUse">
<stop stop-color="#4FA4FF"/>
<stop offset="1" stop-color="#1339E2"/>
</linearGradient>
<linearGradient id="paint33_linear" x1="372.273" y1="336.764" x2="372.273" y2="291.548" gradientUnits="userSpaceOnUse">
<stop stop-color="#4F81FF"/>
<stop offset="1" stop-color="#1339E2"/>
</linearGradient>
<linearGradient id="paint34_linear" x1="368.313" y1="286.445" x2="417.304" y2="315.615" gradientUnits="userSpaceOnUse">
<stop stop-color="#4F24FF"/>
<stop offset="1" stop-color="#00FFE2"/>
</linearGradient>
<linearGradient id="paint35_linear" x1="328.773" y1="331.268" x2="373.598" y2="287.351" gradientUnits="userSpaceOnUse">
<stop stop-color="#4F24FF"/>
<stop offset="1" stop-color="#00FFE2"/>
</linearGradient>
<linearGradient id="paint36_linear" x1="364.563" y1="368.745" x2="407.829" y2="333.679" gradientUnits="userSpaceOnUse">
<stop stop-color="#4F24FF"/>
<stop offset="1" stop-color="#00FFE2"/>
</linearGradient>
<linearGradient id="paint37_linear" x1="338.821" y1="364.066" x2="364.579" y2="340.43" gradientUnits="userSpaceOnUse">
<stop stop-color="#4F24FF"/>
<stop offset="1" stop-color="#00FFE2"/>
</linearGradient>
<linearGradient id="paint38_linear" x1="372.273" y1="344.42" x2="372.273" y2="299.204" gradientUnits="userSpaceOnUse">
<stop stop-color="#4FA4FF"/>
<stop offset="1" stop-color="#1339E2"/>
</linearGradient>
<linearGradient id="paint39_linear" x1="372.273" y1="337.146" x2="372.273" y2="291.93" gradientUnits="userSpaceOnUse">
<stop stop-color="#4F81FF"/>
<stop offset="1" stop-color="#1339E2"/>
</linearGradient>
<linearGradient id="paint40_linear" x1="368.313" y1="286.827" x2="417.304" y2="315.997" gradientUnits="userSpaceOnUse">
<stop stop-color="#4F24FF"/>
<stop offset="1" stop-color="#00FFE2"/>
</linearGradient>
<linearGradient id="paint41_linear" x1="328.773" y1="331.651" x2="373.598" y2="287.734" gradientUnits="userSpaceOnUse">
<stop stop-color="#4F24FF"/>
<stop offset="1" stop-color="#00FFE2"/>
</linearGradient>
<linearGradient id="paint42_linear" x1="364.563" y1="369.128" x2="407.829" y2="334.062" gradientUnits="userSpaceOnUse">
<stop stop-color="#4F24FF"/>
<stop offset="1" stop-color="#00FFE2"/>
</linearGradient>
<linearGradient id="paint43_linear" x1="338.821" y1="364.448" x2="364.579" y2="340.813" gradientUnits="userSpaceOnUse">
<stop stop-color="#4F24FF"/>
<stop offset="1" stop-color="#00FFE2"/>
</linearGradient>
<linearGradient id="paint44_linear" x1="350.273" y1="358.316" x2="350.273" y2="313.099" gradientUnits="userSpaceOnUse">
<stop stop-color="#4FA4FF"/>
<stop offset="1" stop-color="#1339E2"/>
</linearGradient>
<linearGradient id="paint45_linear" x1="350.273" y1="351.042" x2="350.273" y2="305.826" gradientUnits="userSpaceOnUse">
<stop stop-color="#4F81FF"/>
<stop offset="1" stop-color="#1339E2"/>
</linearGradient>
<linearGradient id="paint46_linear" x1="346.313" y1="300.723" x2="395.305" y2="329.893" gradientUnits="userSpaceOnUse">
<stop stop-color="#4F24FF"/>
<stop offset="1" stop-color="#00FFE2"/>
</linearGradient>
<linearGradient id="paint47_linear" x1="306.773" y1="345.546" x2="351.598" y2="301.629" gradientUnits="userSpaceOnUse">
<stop stop-color="#4F24FF"/>
<stop offset="1" stop-color="#00FFE2"/>
</linearGradient>
<linearGradient id="paint48_linear" x1="342.563" y1="383.023" x2="385.829" y2="347.957" gradientUnits="userSpaceOnUse">
<stop stop-color="#4F24FF"/>
<stop offset="1" stop-color="#00FFE2"/>
</linearGradient>
<linearGradient id="paint49_linear" x1="316.822" y1="378.343" x2="342.579" y2="354.708" gradientUnits="userSpaceOnUse">
<stop stop-color="#4F24FF"/>
<stop offset="1" stop-color="#00FFE2"/>
</linearGradient>
<linearGradient id="paint50_linear" x1="350.273" y1="358.698" x2="350.273" y2="313.481" gradientUnits="userSpaceOnUse">
<stop stop-color="#4FA4FF"/>
<stop offset="1" stop-color="#1339E2"/>
</linearGradient>
<linearGradient id="paint51_linear" x1="350.273" y1="351.424" x2="350.273" y2="306.207" gradientUnits="userSpaceOnUse">
<stop stop-color="#4F81FF"/>
<stop offset="1" stop-color="#1339E2"/>
</linearGradient>
<linearGradient id="paint52_linear" x1="346.313" y1="301.105" x2="395.305" y2="330.275" gradientUnits="userSpaceOnUse">
<stop stop-color="#4F24FF"/>
<stop offset="1" stop-color="#00FFE2"/>
</linearGradient>
<linearGradient id="paint53_linear" x1="306.773" y1="345.929" x2="351.598" y2="302.012" gradientUnits="userSpaceOnUse">
<stop stop-color="#4F24FF"/>
<stop offset="1" stop-color="#00FFE2"/>
</linearGradient>
<linearGradient id="paint54_linear" x1="342.563" y1="383.406" x2="385.829" y2="348.339" gradientUnits="userSpaceOnUse">
<stop stop-color="#4F24FF"/>
<stop offset="1" stop-color="#00FFE2"/>
</linearGradient>
<linearGradient id="paint55_linear" x1="316.822" y1="378.726" x2="342.58" y2="355.09" gradientUnits="userSpaceOnUse">
<stop stop-color="#4F24FF"/>
<stop offset="1" stop-color="#00FFE2"/>
</linearGradient>
<linearGradient id="paint56_linear" x1="222.08" y1="-153.912" x2="222.08" y2="441.486" gradientUnits="userSpaceOnUse">
<stop stop-color="#4F24FF"/>
<stop offset="1" stop-color="#13FFE2"/>
</linearGradient>
<linearGradient id="paint57_linear" x1="448.643" y1="395.913" x2="103.659" y2="396.306" gradientUnits="userSpaceOnUse">
<stop stop-color="#4F24FF"/>
<stop offset="1" stop-color="#13FFE2"/>
</linearGradient>
<linearGradient id="paint58_linear" x1="230.721" y1="446.113" x2="211.315" y2="446.113" gradientUnits="userSpaceOnUse">
<stop stop-color="#3BC3FF"/>
<stop offset="1" stop-color="#A7FFE2"/>
</linearGradient>
<linearGradient id="paint59_linear" x1="443.927" y1="369.307" x2="100.887" y2="369.307" gradientUnits="userSpaceOnUse">
<stop stop-color="#4F24FF"/>
<stop offset="1" stop-color="#13FFE2"/>
</linearGradient>
<linearGradient id="paint60_linear" x1="734.649" y1="254.973" x2="105.727" y2="181.221" gradientUnits="userSpaceOnUse">
<stop stop-color="#4F24FF"/>
<stop offset="1" stop-color="#13FFE2"/>
</linearGradient>
<linearGradient id="paint61_linear" x1="227.117" y1="316.751" x2="227.117" y2="225.297" gradientUnits="userSpaceOnUse">
<stop stop-color="#4FA4FF"/>
<stop offset="1" stop-color="#1339E2"/>
</linearGradient>
<linearGradient id="paint62_linear" x1="227.117" y1="302.039" x2="227.117" y2="210.585" gradientUnits="userSpaceOnUse">
<stop stop-color="#4F81FF"/>
<stop offset="1" stop-color="#1339E2"/>
</linearGradient>
<linearGradient id="paint63_linear" x1="219.106" y1="200.265" x2="318.195" y2="259.263" gradientUnits="userSpaceOnUse">
<stop stop-color="#4F24FF"/>
<stop offset="1" stop-color="#00FFE2"/>
</linearGradient>
<linearGradient id="paint64_linear" x1="139.136" y1="290.923" x2="229.797" y2="202.097" gradientUnits="userSpaceOnUse">
<stop stop-color="#4F24FF"/>
<stop offset="1" stop-color="#00FFE2"/>
</linearGradient>
<linearGradient id="paint65_linear" x1="211.522" y1="366.723" x2="299.031" y2="295.799" gradientUnits="userSpaceOnUse">
<stop stop-color="#4F24FF"/>
<stop offset="1" stop-color="#00FFE2"/>
</linearGradient>
<linearGradient id="paint66_linear" x1="159.459" y1="357.258" x2="211.555" y2="309.454" gradientUnits="userSpaceOnUse">
<stop stop-color="#4F24FF"/>
<stop offset="1" stop-color="#00FFE2"/>
</linearGradient>
<linearGradient id="paint67_linear" x1="227.117" y1="316.64" x2="227.117" y2="225.186" gradientUnits="userSpaceOnUse">
<stop stop-color="#4FA4FF"/>
<stop offset="1" stop-color="#1339E2"/>
</linearGradient>
<linearGradient id="paint68_linear" x1="227.117" y1="301.928" x2="227.117" y2="210.474" gradientUnits="userSpaceOnUse">
<stop stop-color="#4F81FF"/>
<stop offset="1" stop-color="#1339E2"/>
</linearGradient>
<linearGradient id="paint69_linear" x1="219.106" y1="200.154" x2="318.195" y2="259.152" gradientUnits="userSpaceOnUse">
<stop stop-color="#4F24FF"/>
<stop offset="1" stop-color="#00FFE2"/>
</linearGradient>
<linearGradient id="paint70_linear" x1="139.136" y1="290.812" x2="229.797" y2="201.986" gradientUnits="userSpaceOnUse">
<stop stop-color="#4F24FF"/>
<stop offset="1" stop-color="#00FFE2"/>
</linearGradient>
<linearGradient id="paint71_linear" x1="211.522" y1="366.612" x2="299.031" y2="295.688" gradientUnits="userSpaceOnUse">
<stop stop-color="#4F24FF"/>
<stop offset="1" stop-color="#00FFE2"/>
</linearGradient>
<linearGradient id="paint72_linear" x1="159.459" y1="357.147" x2="211.555" y2="309.343" gradientUnits="userSpaceOnUse">
<stop stop-color="#4F24FF"/>
<stop offset="1" stop-color="#00FFE2"/>
</linearGradient>
<linearGradient id="paint73_linear" x1="214.046" y1="307.058" x2="214.046" y2="215.604" gradientUnits="userSpaceOnUse">
<stop stop-color="#4FA4FF"/>
<stop offset="1" stop-color="#1339E2"/>
</linearGradient>
<linearGradient id="paint74_linear" x1="214.046" y1="292.346" x2="214.046" y2="200.892" gradientUnits="userSpaceOnUse">
<stop stop-color="#4F81FF"/>
<stop offset="1" stop-color="#1339E2"/>
</linearGradient>
<linearGradient id="paint75_linear" x1="206.035" y1="190.572" x2="305.124" y2="249.57" gradientUnits="userSpaceOnUse">
<stop stop-color="#4F24FF"/>
<stop offset="1" stop-color="#00FFE2"/>
</linearGradient>
<linearGradient id="paint76_linear" x1="126.065" y1="281.23" x2="216.726" y2="192.405" gradientUnits="userSpaceOnUse">
<stop stop-color="#4F24FF"/>
<stop offset="1" stop-color="#00FFE2"/>
</linearGradient>
<linearGradient id="paint77_linear" x1="198.451" y1="357.03" x2="285.96" y2="286.106" gradientUnits="userSpaceOnUse">
<stop stop-color="#4F24FF"/>
<stop offset="1" stop-color="#00FFE2"/>
</linearGradient>
<linearGradient id="paint78_linear" x1="146.388" y1="347.565" x2="198.484" y2="299.761" gradientUnits="userSpaceOnUse">
<stop stop-color="#4F24FF"/>
<stop offset="1" stop-color="#00FFE2"/>
</linearGradient>
<linearGradient id="paint79_linear" x1="214.046" y1="306.947" x2="214.046" y2="215.493" gradientUnits="userSpaceOnUse">
<stop stop-color="#4FA4FF"/>
<stop offset="1" stop-color="#1339E2"/>
</linearGradient>
<linearGradient id="paint80_linear" x1="214.046" y1="292.235" x2="214.046" y2="200.781" gradientUnits="userSpaceOnUse">
<stop stop-color="#4F81FF"/>
<stop offset="1" stop-color="#1339E2"/>
</linearGradient>
<linearGradient id="paint81_linear" x1="206.035" y1="190.461" x2="305.124" y2="249.459" gradientUnits="userSpaceOnUse">
<stop stop-color="#4F24FF"/>
<stop offset="1" stop-color="#00FFE2"/>
</linearGradient>
<linearGradient id="paint82_linear" x1="126.065" y1="281.119" x2="216.726" y2="192.293" gradientUnits="userSpaceOnUse">
<stop stop-color="#4F24FF"/>
<stop offset="1" stop-color="#00FFE2"/>
</linearGradient>
<linearGradient id="paint83_linear" x1="198.451" y1="356.919" x2="285.96" y2="285.995" gradientUnits="userSpaceOnUse">
<stop stop-color="#4F24FF"/>
<stop offset="1" stop-color="#00FFE2"/>
</linearGradient>
<linearGradient id="paint84_linear" x1="146.388" y1="347.454" x2="198.484" y2="299.65" gradientUnits="userSpaceOnUse">
<stop stop-color="#4F24FF"/>
<stop offset="1" stop-color="#00FFE2"/>
</linearGradient>
<linearGradient id="paint85_linear" x1="732.163" y1="105.781" x2="-65.2648" y2="105.781" gradientUnits="userSpaceOnUse">
<stop stop-color="#4F24FF"/>
<stop offset="1" stop-color="#13FFE2"/>
</linearGradient>
<linearGradient id="paint86_linear" x1="735.543" y1="142.067" x2="106.62" y2="68.3152" gradientUnits="userSpaceOnUse">
<stop stop-color="#4F24FF"/>
<stop offset="1" stop-color="#13FFE2"/>
</linearGradient>
<linearGradient id="paint87_linear" x1="735.542" y1="128.977" x2="106.62" y2="55.2246" gradientUnits="userSpaceOnUse">
<stop stop-color="#4F24FF"/>
<stop offset="1" stop-color="#13FFE2"/>
</linearGradient>
<clipPath id="clip0">
<rect width="411" height="562" fill="white"/>
</clipPath>
</defs>
</svg>
