<svg width="24" height="24" viewBox="0 0 24 24" fill="none" xmlns="http://www.w3.org/2000/svg">
<g clip-path="url(#clip0)">
<path d="M4.98788 11.4225C4.98785 11.2886 5.0143 11.1559 5.0657 11.0322C5.1171 10.9084 5.19244 10.7961 5.28739 10.7015C5.38235 10.607 5.49504 10.5322 5.619 10.4813C5.74296 10.4305 5.87574 10.4046 6.00972 10.4053L7.70383 10.4108C7.97395 10.4108 8.23301 10.5181 8.42402 10.7091C8.61502 10.9001 8.72232 11.1592 8.72232 11.4293V17.8354C8.91316 17.7788 9.15792 17.7185 9.42605 17.6556C9.61222 17.6118 9.77813 17.5064 9.89689 17.3565C10.0156 17.2066 10.0803 17.0209 10.0803 16.8297V8.88353C10.0803 8.61338 10.1876 8.35428 10.3786 8.16323C10.5696 7.97219 10.8287 7.86483 11.0988 7.86479H12.7964C13.0665 7.86486 13.3256 7.97222 13.5166 8.16326C13.7076 8.3543 13.8149 8.61339 13.8149 8.88353V16.2586C13.8149 16.2586 14.2397 16.0866 14.6538 15.9118C14.8076 15.8468 14.9388 15.7379 15.0311 15.5988C15.1234 15.4596 15.1727 15.2964 15.1728 15.1295V6.33684C15.1728 6.20311 15.1991 6.07067 15.2503 5.94711C15.3015 5.82355 15.3765 5.71127 15.471 5.61669C15.5656 5.52212 15.6779 5.44709 15.8014 5.3959C15.925 5.34471 16.0574 5.31836 16.1911 5.31835H17.8887C18.1588 5.31835 18.4179 5.42565 18.6089 5.61666C18.7999 5.80766 18.9072 6.06672 18.9073 6.33684V13.5771C20.3789 12.5105 21.8704 11.2277 23.054 9.6852C23.2258 9.4613 23.3394 9.19837 23.3848 8.91988C23.4302 8.64138 23.4059 8.35598 23.3142 8.08913C22.5134 5.75519 21.0112 3.72559 19.013 2.27783C17.0149 0.830062 14.6183 0.0348121 12.1511 0.000812855C5.4979 -0.0885617 -0.000595993 5.34245 5.75687e-05 11.9964C-0.00647503 14.102 0.543066 16.1719 1.59311 17.997C1.73792 18.2466 1.95096 18.4497 2.2072 18.5824C2.46345 18.7152 2.75225 18.772 3.03969 18.7463C3.36083 18.7181 3.76065 18.6781 4.23595 18.6223C4.44283 18.5988 4.63382 18.5 4.77256 18.3447C4.91129 18.1895 4.98807 17.9886 4.98828 17.7804V11.4225" fill="white"/>
<path d="M4.95077 21.6963C6.74005 22.998 8.85453 23.7793 11.0603 23.9538C13.2661 24.1284 15.4771 23.6893 17.4488 22.6852C19.4205 21.6811 21.076 20.1512 22.2322 18.2646C23.3884 16.3781 24.0001 14.2084 23.9998 11.9958C23.9998 11.7196 23.9869 11.4465 23.9685 11.1748C19.5862 17.7104 11.4948 20.7662 4.95068 21.6966" fill="#BFCFDA"/>
</g>
<defs>
<clipPath id="clip0">
<rect width="24" height="23.9912" fill="white"/>
</clipPath>
</defs>
</svg>
