<svg width="32" height="54" viewBox="0 0 32 54" fill="none" xmlns="http://www.w3.org/2000/svg">
<g opacity="0.6">
<path opacity="0.6" d="M15.1926 6.52686L9.77344 8.99147L15.1926 12.1931L20.6097 8.99147L15.1926 6.52686Z" fill="#010101"/>
</g>
<path opacity="0.45" d="M9.77344 8.99148L15.1926 12.1931V0L9.77344 8.99148Z" fill="#FC00FF"/>
<g opacity="0.8">
<path opacity="0.8" d="M15.1934 0V12.1931L20.6104 8.99148L15.1934 0Z" fill="#FC00FF"/>
</g>
<path opacity="0.45" d="M0.0166016 31.1848L16.0052 53.7096V40.6308L0.0166016 31.1848Z" fill="#FC00FF"/>
<g opacity="0.8">
<path opacity="0.8" d="M16.0049 40.6308V53.7096L31.9998 31.1848L16.0049 40.6308Z" fill="#FC00FF"/>
</g>
<path opacity="0.7" d="M2.25272 21.5669C2.25272 28.5304 7.81435 34.7001 15.5249 34.7001C17.7787 34.6279 19.5914 32.7714 19.5914 30.499C19.5914 19.1686 11.0064 9.80418 0 8.56946C1.36356 12.6603 2.25272 16.5248 2.25272 21.5669Z" fill="#720073"/>
<path opacity="0.7" d="M23.0944 30.499C23.0944 31.135 23.0167 31.7545 22.87 32.3456C26.282 29.967 28.5237 26.0132 28.5237 21.5669C28.5237 16.6327 29.3828 12.7462 30.7775 8.56726C25.8235 9.11413 21.2272 11.3499 17.7275 14.8197C21.2084 19.2846 23.0944 24.7479 23.0944 30.499Z" fill="#A22BA3"/>
</svg>
