<svg width="24" height="24" viewBox="0 0 24 24" fill="none" xmlns="http://www.w3.org/2000/svg">
<path d="M24 14.8947V16.1022C24 16.1716 23.956 16.2332 23.892 16.2601C23.5 16.4219 22.158 17.0151 21.6 17.7624C20.176 19.671 19.088 22.4 16.656 22.4H6.50998C2.91402 22.4 0 19.5843 0 16.1099V15.9982C0 15.9058 0.0779825 15.8307 0.173991 15.8307H5.83002C5.94199 15.8307 6.02398 15.9308 6.01402 16.0367C5.97399 16.3911 6.04201 16.7532 6.216 17.0825C6.55199 17.7393 7.248 18.1495 7.99999 18.1495H10.8V16.0445H8.03199C7.89 16.0445 7.80602 15.8865 7.88802 15.7748C7.91799 15.7305 7.95202 15.6843 7.988 15.6323C8.25001 15.2741 8.624 14.7175 8.99601 14.0839C9.25001 13.6563 9.49599 13.1999 9.694 12.7415C9.73402 12.6587 9.76599 12.5739 9.79799 12.4911C9.85199 12.3447 9.90801 12.208 9.948 12.0713C9.98802 11.9557 10.02 11.8344 10.052 11.7207C10.146 11.3317 10.186 10.9196 10.186 10.492C10.186 10.3245 10.178 10.1492 10.162 9.98164C10.154 9.79868 10.13 9.61569 10.106 9.43273C10.09 9.27096 10.06 9.1111 10.028 8.94355C9.98802 8.69896 9.932 8.45632 9.86799 8.21169L9.84599 8.11928C9.79799 7.95169 9.75801 7.79187 9.70202 7.62432C9.54399 7.09851 9.36202 6.58623 9.17 6.10668C9.1 5.91601 9.01999 5.73305 8.93999 5.55009C8.82202 5.27469 8.70199 5.02432 8.592 4.78741C8.53602 4.67955 8.48801 4.58133 8.44001 4.48119C8.38601 4.36755 8.33002 4.25392 8.274 4.14609C8.23401 4.06328 8.18799 3.98623 8.15599 3.90919L7.814 3.3006C7.766 3.21778 7.84601 3.11955 7.93999 3.1446L10.08 3.7031H10.086C10.09 3.7031 10.092 3.70505 10.094 3.70505L10.376 3.78014L10.686 3.86491L10.8 3.89569V2.67082C10.8 2.07955 11.292 1.60001 11.9 1.60001C12.204 1.60001 12.48 1.71941 12.678 1.91392C12.876 2.10846 13 2.37423 13 2.67082V4.48891L13.228 4.55051C13.246 4.55632 13.264 4.56401 13.28 4.57555C13.336 4.61601 13.416 4.67569 13.518 4.74891C13.598 4.81051 13.684 4.88564 13.788 4.96268C13.994 5.12251 14.24 5.3286 14.51 5.5655C14.582 5.62519 14.652 5.68682 14.716 5.74846C15.064 6.06046 15.454 6.42637 15.826 6.83082C15.93 6.94446 16.032 7.06001 16.136 7.18133C16.24 7.3046 16.35 7.42592 16.446 7.54728C16.572 7.70905 16.708 7.8766 16.826 8.05187C16.882 8.13468 16.946 8.21941 17 8.30223C17.152 8.52369 17.286 8.75291 17.414 8.98209C17.468 9.08801 17.524 9.20355 17.572 9.31719C17.714 9.62341 17.826 9.93541 17.898 10.2474C17.92 10.3148 17.936 10.388 17.944 10.4535V10.4689C17.968 10.5613 17.976 10.6596 17.984 10.7597C18.016 11.0794 18 11.3991 17.928 11.7207C17.898 11.8575 17.858 11.9865 17.81 12.1233C17.762 12.2542 17.714 12.391 17.652 12.52C17.532 12.7877 17.39 13.0554 17.222 13.3058C17.168 13.3982 17.104 13.4965 17.04 13.5889C16.97 13.6871 16.898 13.7796 16.834 13.8701C16.746 13.9856 16.652 14.107 16.556 14.2148C16.47 14.3285 16.382 14.4421 16.286 14.5422C16.152 14.6944 16.024 14.8388 15.89 14.9775C15.81 15.068 15.724 15.1605 15.636 15.2433C15.55 15.3357 15.462 15.4185 15.382 15.4956C15.248 15.6246 15.136 15.7247 15.042 15.8076L14.822 16.0021C14.79 16.029 14.748 16.0445 14.704 16.0445H13V18.1495H15.144C15.624 18.1495 16.08 17.9858 16.448 17.6853C16.574 17.5794 17.124 17.121 17.774 16.4296C17.796 16.4065 17.824 16.3892 17.856 16.3815L23.778 14.7329C23.888 14.7021 24 14.783 24 14.8947Z" fill="white"/>
</svg>
