<svg
  version="1.1"
  width="100%"
  height="100%"
  viewBox="0 0 320 320"
  fill="#6B00F7"
  stroke="#FF39E7"
  stroke-linecap="round"
  style="background-color: transparent"
  xmlns="http://www.w3.org/2000/svg"
>
  <g transform="translate(122,122)">
    <g transform="scale(0.6)" fill="#000">
      <path
        d="M103.2 63.6v-.2c0-.1 0-.1-.1-.2V63c0-.1-.1-.1-.1-.2 0 0 0-.1-.1-.1L65.7 1c-.1-.1-.2-.3-.3-.4h-.1c-.1-.1-.2-.2-.3-.2 0 0-.1 0-.1-.1-.1-.1-.2-.1-.3-.1h-.1c-.2-.2-.3-.2-.5-.2s-.3 0-.5.1h-.1c-.1 0-.2.1-.3.1 0 0-.1 0-.1.1-.1.1-.2.1-.3.2h-.1c-.1.1-.2.2-.3.4L25.1 62.7s0 .1-.1.1c0 .1-.1.1-.1.2v.2c0 .1 0 .1-.1.2v.8c0 .1 0 .1.1.2v.1c.1.2.2.3.3.4l.1.1.3.3s.1 0 .1.1L63 87.2h.1c.1.1.2.1.3.1h.1c.2 0 .3.1.5.1s.3 0 .5-.1h.1c.1 0 .2-.1.3-.1h.1l37.2-21.7c.1 0 .1-.1.2-.1l.1-.1.2-.2.1-.1c0-.1.1-.1.1-.2s.1-.1.1-.2 0-.1.1-.2c0-.1 0-.1.1-.2V64v-.2-.2zM62 45.6L31.9 59.3 62 9.2v36.4zm0 4.4v32L31.2 64 62 50zm4 0l30.8 14L66 82V50zm0-4.4V9.2l30.1 50.1L66 45.6z"
      />
      <path
        d="M100.1 72L64 93.7 27.9 72c-.8-.5-1.9-.3-2.5.4-.6.7-.7 1.7-.2 2.5l37.2 52.2.1.1c.1.1.1.2.2.2l.1.1c.1.1.2.1.2.2 0 0 .1 0 .1.1.1 0 .2.1.3.1h.1c.1 0 .3.1.4.1.2 0 .3 0 .4-.1h.1c.1 0 .2-.1.3-.1 0 0 .1 0 .1-.1.1 0 .2-.1.2-.2l.1-.1.2-.2.1-.1 37.2-52.2c.5-.8.5-1.8-.2-2.5s-1.4-.8-2.3-.4zM62 97.1v22.6L34 80.4l28 16.7zm4 22.6V97.1l28-16.8-28 39.4z"
      />
    </g>
  </g>
  <defs>
    <path id="r1">
      <animate
        id="p1"
        attributeName="d"
        values="m160,160l0,0 0,0;m130,110l30,-17 30,17;m130,60l30,-17 30,17;m160,20l0,0 0,0"
        dur="8s"
        repeatCount="indefinite"
      />
      <animate
        attributeName="stroke-width"
        values="0;4;6;4;0"
        dur="4s"
        repeatCount="indefinite"
      />
    </path>
    <path id="r2">
      <animate
        id="p1"
        attributeName="d"
        values="m160,160l0,0 0,0;m130,110l30,-17 30,17;m130,60l30,-17 30,17;m160,20l0,0 0,0"
        dur="6s"
        repeatCount="indefinite"
        begin="p1.begin+2s"
      />
      <animate
        attributeName="stroke-width"
        values="0;4;6;4;0"
        dur="3s"
        repeatCount="indefinite"
        begin="p1.begin+2s"
      />
    </path>
    <path id="r3">
      <animate
        id="p1"
        attributeName="d"
        values="m160,160l0,0 0,0;m130,110l30,-17 30,17;m130,60l30,-17 30,17;m160,20l0,0 0,0"
        dur="6s"
        repeatCount="indefinite"
        begin="p1.begin+3s"
      />
      <animate
        attributeName="stroke-width"
        values="0;4;6;4;0"
        dur="1s"
        repeatCount="indefinite"
        begin="p1.begin+3s"
      />
    </path>
    <path id="r4">
      <animate
        id="p1"
        attributeName="d"
        values="m160,160l0,0 0,0;m130,110l30,-17 30,17;m130,60l30,-17 30,17;m160,20l0,0 0,0"
        dur="2s"
        repeatCount="indefinite"
        begin="p1.begin+4s"
      />
      <animate
        attributeName="stroke-width"
        values="0;4;6;4;0"
        dur="1s"
        repeatCount="indefinite"
        begin="p1.begin+4s"
      />
    </path>
    <path id="r5">
      <animate
        id="p1"
        attributeName="d"
        values="m160,160l0,0 0,0;m130,110l30,-17 30,17;m130,60l30,-17 30,17;m160,20l0,0 0,0"
        dur="4s"
        repeatCount="indefinite"
        begin="p1.begin+5s"
      />
      <animate
        attributeName="stroke-width"
        values="0;4;6;4;0"
        dur="1s"
        repeatCount="indefinite"
        begin="p1.begin+5s"
      />
    </path>
    <path id="r6">
      <animate
        id="p1"
        attributeName="d"
        values="m160,160l0,0 0,0;m130,110l30,-17 30,17;m130,60l30,-17 30,17;m160,20l0,0 0,0"
        dur="5s"
        repeatCount="indefinite"
        begin="p1.begin+6s"
      />
      <animate
        attributeName="stroke-width"
        values="0;4;6;4;0"
        dur="3s"
        repeatCount="indefinite"
        begin="p1.begin+6s"
      />
    </path>
    <path id="r7">
      <animate
        id="p1"
        attributeName="d"
        values="m160,160l0,0 0,0;m130,110l30,-17 30,17;m130,60l30,-17 30,17;m160,20l0,0 0,0"
        dur="4s"
        repeatCount="indefinite"
        begin="p1.begin+7s"
      />
      <animate
        attributeName="stroke-width"
        values="0;4;6;4;0"
        dur="4s"
        repeatCount="indefinite"
        begin="p1.begin+7s"
      />
    </path>
  </defs>
  <use href="#r1" transform="rotate(36 160 160)" />
  <use href="#r1" transform="rotate(108 160 160)" />
  <use href="#r1" transform="rotate(180 160 160)" />
  <use href="#r1" transform="rotate(252 160 160)" />
  <use href="#r1" transform="rotate(324 160 160)" />
  <use href="#r2" transform="rotate(0 160 160)" />
  <use href="#r2" transform="rotate(72 160 160)" />
  <use href="#r2" transform="rotate(144 160 160)" />
  <use href="#r2" transform="rotate(216 160 160)" />
  <use href="#r2" transform="rotate(288 160 160)" />
  <use href="#r3" transform="rotate(36 160 160)" />
  <use href="#r3" transform="rotate(108 160 160)" />
  <use href="#r3" transform="rotate(180 160 160)" />
  <use href="#r3" transform="rotate(252 160 160)" />
  <use href="#r3" transform="rotate(324 160 160)" />
  <use href="#r4" transform="rotate(0 160 160)" />
  <use href="#r4" transform="rotate(60 160 160)" />
  <use href="#r4" transform="rotate(120 160 160)" />
  <use href="#r4" transform="rotate(180 160 160)" />
  <use href="#r4" transform="rotate(240 160 160)" />
  <use href="#r4" transform="rotate(300 160 160)" />
  <use href="#r5" transform="rotate(30 160 160)" />
  <use href="#r5" transform="rotate(90 160 160)" />
  <use href="#r5" transform="rotate(150 160 160)" />
  <use href="#r5" transform="rotate(210 160 160)" />
  <use href="#r5" transform="rotate(270 160 160)" />
  <use href="#r5" transform="rotate(330 160 160)" />
  <use href="#r6" transform="rotate(0 160 160)" />
  <use href="#r6" transform="rotate(72 160 160)" />
  <use href="#r6" transform="rotate(144 160 160)" />
  <use href="#r6" transform="rotate(216 160 160)" />
  <use href="#r6" transform="rotate(288 160 160)" />
  <use href="#r7" transform="rotate(36 160 160)" />
  <use href="#r7" transform="rotate(108 160 160)" />
  <use href="#r7" transform="rotate(180 160 160)" />
  <use href="#r7" transform="rotate(252 160 160)" />
  <use href="#r7" transform="rotate(324 160 160)" />
</svg>
